o cake_3
v 0.437500 -0.500000 -0.437500
v 0.437500 0.000000 -0.437499
v 0.437499 -0.000000 0.437500
v 0.437500 -0.500000 0.437500
v -0.062500 -0.000000 0.437500
v -0.062500 -0.500000 0.437500
v -0.062500 0.000000 -0.437500
v -0.062500 -0.500000 -0.437500
vt 0.937500 0.000000
vt 0.937500 0.500000
vt 0.062500 0.500000
vt 0.062500 0.000000
vt 0.062500 0.062500
vt 0.937500 0.062500
vt 0.937500 0.937500
vt 0.062500 0.937500
vn -1.000000 0.000000 0.000000
vn -0.000000 1.000000 0.000000
vn 0.000000 -1.000000 -0.000000
vn 1.000000 0.000000 0.000000
vn 0.000000 -0.000000 1.000000
vn 0.000000 0.000000 -1.000000
usemtl cake_inner
s off
f 6/1/1 5/2/1 7/3/1 8/4/1
usemtl cake_top
f 2/5/2 7/6/2 5/7/2 3/8/2
usemtl cake_bottom
f 1/5/3 4/6/3 6/7/3 8/8/3
usemtl cake_side
f 1/1/4 2/2/4 3/3/4 4/4/4
f 4/1/5 3/2/5 5/3/5 6/4/5
f 2/3/6 1/4/6 8/1/6 7/2/6
