o fcBlockCandle_c06
v -0.062500 -0.500000 0.062500
v -0.062500 -0.125000 0.062500
v -0.062500 -0.500000 -0.062500
v -0.062500 -0.125000 -0.062500
v 0.062500 -0.500000 0.062500
v 0.062500 -0.125000 0.062500
v 0.062500 -0.500000 -0.062500
v 0.062500 -0.125000 -0.062500
v 0.015625 -0.062500 -0.015625
v 0.015625 -0.125000 -0.015625
v 0.015625 -0.062500 0.015625
v 0.015625 -0.125000 0.015625
v -0.015625 -0.062500 -0.015625
v -0.015625 -0.125000 -0.015625
v -0.015625 -0.062500 0.015625
v -0.015625 -0.125000 0.015625
vn -1.000000 0.000000 0.000000
vn 0.000000 0.000000 -1.000000
vn 1.000000 0.000000 0.000000
vn 0.000000 0.000000 1.000000
vn 0.000000 -1.000000 0.000000
vn 0.000000 1.000000 0.000000
usemtl fcBlockCandle_c06
s off
f 2//1 4//1 3//1 1//1
f 4//2 8//2 7//2 3//2
f 8//3 6//3 5//3 7//3
f 6//4 2//4 1//4 5//4
f 1//5 3//5 7//5 5//5
f 6//6 8//6 4//6 2//6
usemtl fcBlockCandleWick
f 16//5 14//5 10//5 12//5
f 13//2 9//2 10//2 14//2
f 15//1 13//1 14//1 16//1
f 11//6 9//6 13//6 15//6
f 11//4 15//4 16//4 12//4
f 9//3 11//3 12//3 10//3
