o fcBlockAnvil
v -0.250000 -0.500000 0.500000
v -0.250000 -0.375000 0.500000
v -0.250000 -0.500000 -0.500000
v -0.250000 -0.375000 -0.500000
v 0.250000 -0.500000 0.500000
v 0.250000 -0.375000 0.500000
v 0.250000 -0.500000 -0.500000
v 0.250000 -0.375000 -0.500000
v -0.125000 -0.375000 0.125000
v -0.125000 0.062500 0.125000
v -0.125000 -0.375000 -0.125000
v -0.125000 0.062500 -0.125000
v 0.125000 -0.375000 0.125000
v 0.125000 0.062500 0.125000
v 0.125000 -0.375000 -0.125000
v 0.125000 0.062500 -0.125000
v 0.125000 0.500000 -0.375000
v 0.125000 0.312500 -0.375000
v 0.125000 0.500000 -0.250000
v 0.125000 0.312500 -0.250000
v -0.125000 0.500000 -0.375000
v -0.125000 0.312500 -0.375000
v -0.125000 0.500000 -0.250000
v -0.125000 0.312500 -0.250000
v -0.187500 0.062500 0.187500
v -0.187500 0.250000 0.187500
v -0.187500 0.062500 -0.187500
v -0.187500 0.250000 -0.187500
v 0.187500 0.062500 0.187500
v 0.187500 0.250000 0.187500
v 0.187500 0.062500 -0.187500
v 0.187500 0.250000 -0.187500
v -0.187500 0.250000 0.250000
v -0.187500 0.437500 0.250000
v -0.187500 0.250000 -0.250000
v -0.187500 0.437500 -0.250000
v 0.187500 0.250000 0.250000
v 0.187500 0.437500 0.250000
v 0.187500 0.250000 -0.250000
v 0.187500 0.437500 -0.250000
v -0.187500 0.437500 0.500000
v -0.187500 0.500000 0.500000
v -0.187500 0.437500 -0.250000
v -0.187500 0.500000 -0.250000
v 0.187500 0.437500 0.500000
v 0.187500 0.500000 0.500000
v 0.187500 0.437500 -0.250000
v 0.187500 0.500000 -0.250000
v 0.062500 0.500000 -0.500000
v 0.062500 0.375000 -0.500000
v 0.062500 0.500000 -0.375000
v 0.062500 0.375000 -0.375000
v -0.062500 0.500000 -0.500000
v -0.062500 0.375000 -0.500000
v -0.062500 0.500000 -0.375000
v -0.062500 0.375000 -0.375000
vn -1.000000 0.000000 0.000000
vn 0.000000 0.000000 -1.000000
vn 1.000000 0.000000 0.000000
vn 0.000000 0.000000 1.000000
vn 0.000000 -1.000000 0.000000
vn 0.000000 1.000000 0.000000

usemtl fcBlockAnvil
s off
f 2//1 4//1 3//1 1//1
f 4//2 8//2 7//2 3//2
f 8//3 6//3 5//3 7//3
f 6//4 2//4 1//4 5//4
f 1//5 3//5 7//5 5//5
f 6//6 8//6 4//6 2//6
f 10//1 12//1 11//1 9//1
f 12//2 16//2 15//2 11//2
f 16//3 14//3 13//3 15//3
f 14//4 10//4 9//4 13//4
f 9//5 11//5 15//5 13//5
f 14//6 16//6 12//6 10//6
f 24//5 22//5 18//5 20//5
f 21//2 17//2 18//2 22//2
f 23//1 21//1 22//1 24//1
f 19//6 17//6 21//6 23//6
f 19//4 23//4 24//4 20//4
f 17//3 19//3 20//3 18//3
f 26//1 28//1 27//1 25//1
f 28//2 32//2 31//2 27//2
f 32//3 30//3 29//3 31//3
f 30//4 26//4 25//4 29//4
f 25//5 27//5 31//5 29//5
f 30//6 32//6 28//6 26//6
f 34//1 36//1 35//1 33//1
f 36//2 40//2 39//2 35//2
f 40//3 38//3 37//3 39//3
f 38//4 34//4 33//4 37//4
f 33//5 35//5 39//5 37//5
f 38//6 40//6 36//6 34//6
f 42//1 44//1 43//1 41//1
f 44//2 48//2 47//2 43//2
f 48//3 46//3 45//3 47//3
f 46//4 42//4 41//4 45//4
f 41//5 43//5 47//5 45//5
f 46//6 48//6 44//6 42//6
f 56//5 54//5 50//5 52//5
f 53//2 49//2 50//2 54//2
f 55//1 53//1 54//1 56//1
f 51//6 49//6 53//6 55//6
f 51//4 55//4 56//4 52//4
f 49//3 51//3 52//3 50//3
