mtllib rail2.mtl
o Rail
v -0.375000 -0.375000 0.500000
v -0.375000 -0.375000 -0.500000
v -0.375000 -0.500000 -0.500000
v -0.375000 -0.500000 0.500000
v -0.250000 -0.375000 -0.500000
v -0.250000 -0.500000 -0.500000
v -0.250000 -0.375000 0.500000
v -0.250000 -0.500000 0.500000
v 0.250000 -0.375000 0.500000
v 0.250000 -0.375000 -0.500000
v 0.250000 -0.500000 -0.500000
v 0.250000 -0.500000 0.500000
v 0.375000 -0.375000 -0.500000
v 0.375000 -0.500000 -0.500000
v 0.375000 -0.375000 0.500000
v 0.375000 -0.500000 0.500000
v -0.437500 -0.437500 -0.437500
v 0.437500 -0.437500 -0.437500
v 0.437500 -0.500000 -0.437500
v -0.437500 -0.500000 -0.437500
v 0.437500 -0.437500 -0.312500
v 0.437500 -0.500000 -0.312500
v -0.437500 -0.437500 -0.312500
v -0.437500 -0.500000 -0.312500
v -0.437500 -0.500000 -0.187500
v 0.437500 -0.500000 -0.187500
v 0.437500 -0.500000 -0.062500
v -0.437500 -0.500000 -0.062500
v 0.437500 -0.437500 -0.187500
v 0.437500 -0.437500 -0.062500
v -0.437500 -0.437500 -0.187500
v -0.437500 -0.437500 -0.062500
v -0.437500 -0.500000 0.062500
v 0.437500 -0.500000 0.062500
v 0.437500 -0.500000 0.187500
v -0.437500 -0.500000 0.187500
v 0.437500 -0.437500 0.062500
v 0.437500 -0.437500 0.187500
v -0.437500 -0.437500 0.062500
v -0.437500 -0.437500 0.187500
v -0.437500 -0.500000 0.312500
v 0.437500 -0.500000 0.312500
v 0.437500 -0.500000 0.437500
v -0.437500 -0.500000 0.437500
v 0.437500 -0.437500 0.312500
v 0.437500 -0.437500 0.437500
v -0.437500 -0.437500 0.312500
v -0.437500 -0.437500 0.437500
vt 0.062500 0.875000
vt 0.937500 0.875000
vt 0.937500 0.812500
vt 0.062500 0.812500
vt 0.937500 0.062500
vt 0.937500 0.187500
vt 0.875000 0.187500
vt 0.875000 0.062500
vt 0.125000 0.187500
vt 0.125000 0.062500
vt 0.062500 0.062500
vt 0.062500 0.187500
vt 0.937500 0.937500
vt 0.062500 0.937500
vt 0.062500 0.312500
vt 0.937500 0.312500
vt 0.937500 0.437500
vt 0.062500 0.437500
vt 0.875000 0.437500
vt 0.875000 0.312500
vt 0.062500 0.375000
vt 0.937500 0.375000
vt 0.062500 0.687500
vt 0.937500 0.687500
vt 0.937500 0.562500
vt 0.062500 0.562500
vt 0.125000 0.437500
vt 0.125000 0.312500
vt 0.875000 0.687500
vt 0.875000 0.562500
vt 0.125000 0.687500
vt 0.125000 0.562500
vt 0.937500 0.625000
vt 0.062500 0.625000
vt 0.875000 0.937500
vt 0.875000 0.812500
vt 0.062500 0.125000
vt 0.937500 0.125000
vt 0.125000 0.937500
vt 0.125000 0.812500
vt 0.125000 0.000000
vt 0.125000 1.000000
vt 0.250000 1.000000
vt 0.250000 0.000000
vt 0.125000 0.125000
vt 0.250000 0.125000
vt 0.750000 0.125000
vt 0.875000 0.125000
vt 0.875000 0.000000
vt 0.750000 0.000000
vt 0.750000 1.000000
vt 0.875000 1.000000
vn 0.000000 0.000000 -1.000000
vn 1.000000 0.000000 0.000000
vn 0.000000 -0.000000 1.000000
vn -1.000000 0.000000 0.000000
vn 0.000000 -1.000000 0.000000
vn 0.000000 1.000000 0.000000
usemtl rail_wood
s off
f 17/1/1 18/2/1 19/3/1 20/4/1
f 18/5/2 21/6/2 22/7/2 19/8/2
f 21/2/3 23/1/3 24/4/3 22/3/3
f 23/9/4 17/10/4 20/11/4 24/12/4
f 20/4/5 19/3/5 22/13/5 24/14/5
f 23/14/6 21/13/6 18/3/6 17/4/6
f 25/15/5 26/16/5 27/17/5 28/18/5
f 29/16/2 30/17/2 27/19/2 26/20/2
f 31/21/1 29/22/1 26/16/1 25/15/1
f 32/23/6 30/24/6 29/25/6 31/26/6
f 32/27/4 31/28/4 25/15/4 28/18/4
f 30/22/3 32/21/3 28/15/3 27/16/3
f 33/26/5 34/25/5 35/24/5 36/23/5
f 37/25/2 38/24/2 35/29/2 34/30/2
f 39/14/1 37/13/1 34/2/1 33/1/1
f 40/18/6 38/17/6 37/16/6 39/15/6
f 40/31/4 39/32/4 33/26/4 36/23/4
f 38/33/3 40/34/3 36/26/3 35/25/3
f 41/11/5 42/5/5 43/6/5 44/12/5
f 45/3/2 46/13/2 43/35/2 42/36/2
f 47/37/1 45/38/1 42/5/1 41/11/1
f 48/12/6 46/6/6 45/5/6 47/11/6
f 48/39/4 47/40/4 41/4/4 44/14/4
f 46/38/3 48/37/3 44/11/3 43/5/3
usemtl rail_metal
f 1/41/4 2/42/4 3/43/4 4/44/4
f 2/45/1 5/46/1 6/44/1 3/41/1
f 5/42/2 7/41/2 8/44/2 6/43/2
f 7/46/3 1/45/3 4/41/3 8/44/3
f 4/42/5 3/41/5 6/44/5 8/43/5
f 7/43/6 5/44/6 2/41/6 1/42/6
f 9/41/4 10/42/4 11/43/4 12/44/4
f 10/47/1 13/48/1 14/49/1 11/50/1
f 13/42/2 15/41/2 16/44/2 14/43/2
f 15/48/3 9/47/3 12/50/3 16/49/3
f 12/51/5 11/50/5 14/49/5 16/52/5
f 15/52/6 13/49/6 10/50/6 9/51/6
