o cake_0
v 0.437500 -0.500000 -0.437500
v 0.437500 0.000000 -0.437499
v 0.437499 -0.000000 0.437500
v 0.437500 -0.500000 0.437500
v -0.437500 -0.000000 0.437500
v -0.437500 -0.500000 0.437500
v -0.437500 0.000000 -0.437500
v -0.437500 -0.500000 -0.437500
vt 0.937500 0.000000
vt 0.937500 0.500000
vt 0.062500 0.500000
vt 0.062500 0.000000
vt 0.062500 0.062500
vt 0.937500 0.062500
vt 0.937500 0.937500
vt 0.062500 0.937500
vn 1.000000 0.000000 0.000000
vn 0.000000 -0.000000 1.000000
vn -1.000000 -0.000000 0.000000
vn 0.000000 0.000000 -1.000000
vn 0.000000 -1.000000 -0.000000
vn -0.000000 1.000000 0.000000
usemtl cake_side
s off
f 1/1/1 2/2/1 3/3/1 4/4/1
f 4/1/2 3/2/2 5/3/2 6/4/2
f 6/1/3 5/2/3 7/3/3 8/4/3
f 2/3/4 1/4/4 8/1/4 7/2/4
usemtl cake_bottom
f 1/5/5 4/6/5 6/7/5 8/8/5
usemtl cake_top
f 2/5/6 7/6/6 5/7/6 3/8/6
