o cloth_0_bottomslab
v -0.500000 -0.500000 0.500000
v -0.500000 0.000000 0.500000
v -0.500000 -0.500000 -0.500000
v -0.500000 0.000000 -0.500000
v 0.500000 -0.500000 0.500000
v 0.500000 0.000000 0.500000
v 0.500000 -0.500000 -0.500000
v 0.500000 0.000000 -0.500000
vt 1.0000 -0.0000
vt 1.0000 0.5000
vt 0.0000 0.5000
vt 0.0000 -0.0000
vt 1.0000 0.5000
vt 1.0000 -0.0000
vt -0.0000 -0.0000
vt -0.0000 0.5000
vt 1.0000 0.5000
vt 1.0000 -0.0000
vt 0.0000 0.5000
vt -0.0000 -0.0000
vt 0.0000 1.0000
vt 1.0000 1.0000
vt 1.0000 1.0000
vt 0.0000 1.0000
vt -0.0000 0.0000
vt 1.0000 -0.0000
vn -1.0000 0.0000 0.0000
vn 0.0000 0.0000 -1.0000
vn 1.0000 0.0000 0.0000
vn 0.0000 0.0000 1.0000
vn 0.0000 -1.0000 0.0000
vn 0.0000 1.0000 0.0000
usemtl cloth_0
s off
f 1/1/1 2/2/1 4/3/1 3/4/1
f 3/4/2 4/3/2 8/5/2 7/6/2
f 7/7/3 8/8/3 6/9/3 5/10/3
f 5/10/4 6/9/4 2/11/4 1/12/4
f 3/13/5 7/14/5 5/10/5 1/12/5
f 8/15/6 4/16/6 2/17/6 6/18/6
