o fcBlockGroth_7
v -0.500000 -0.500000 -0.500000
v 0.500000 -0.500000 -0.500000
v 0.500000 -0.500000 0.500000
v -0.500000 -0.500000 0.500000
v 0.500000 0.000000 -0.500000
v 0.500000 -0.000000 0.500000
v -0.500000 -0.000000 0.500000
v -0.500000 0.000000 -0.500000
vt 0.0000 1.0000
vt 1.0000 1.0000
vt 1.0000 0.0000
vt 0.0000 0.0000
vt 1.0000 0.0000
vt 1.0000 0.5000
vt 0.0000 0.5000
vt 0.0000 0.0000
vt 0.0000 0.5000
vt 1.0000 0.5000
vt 1.0000 0.0000
vt 0.0000 0.0000
vt 0.0000 0.5000
vt 1.0000 0.5000
vt 1.0000 1.0000
vt 0.0000 1.0000
vt 0.0000 0.0000
vt 1.0000 0.0000
vn 0.0000 -1.0000 -0.0000
vn 1.0000 0.0000 0.0000
vn -1.0000 0.0000 0.0000
vn 0.0000 0.0000 -1.0000
vn 0.0000 -0.0000 1.0000
vn 0.0000 1.0000 0.0000
usemtl fcBlockGroth_bottom
s 1
f 1/1/1 2/2/1 3/3/1 4/4/1
usemtl fcBlockGroth_side
f 2/5/2 5/6/2 6/7/2 3/8/2
f 4/4/3 7/9/3 8/10/3 1/11/3
f 1/12/4 8/13/4 5/6/4 2/5/4
f 3/3/5 6/14/5 7/9/5 4/4/5
usemtl fcBlockGroth_top_grown
f 5/15/6 8/16/6 7/17/6 6/18/6
