o fcBlockMiningCharge
v -0.500000 -0.500000 0.500000
v -0.500000 0.000000 0.500000
v -0.500000 -0.500000 -0.500000
v -0.500000 0.000000 -0.500000
v 0.500000 -0.500000 0.500000
v 0.500000 0.000000 0.500000
v 0.500000 -0.500000 -0.500000
v 0.500000 0.000000 -0.500000
vt 1.0000 1.0000
vt 0.5000 1.0000
vt 0.5000 -0.0000
vt 1.0000 -0.0000
vt 1.0000 -0.0000
vt 0.5000 -0.0000
vt 0.5000 1.0000
vt 1.0000 1.0000
vt 0.5000 1.0000
vt 1.0000 1.0000
vt 0.5000 0.0000
vt 1.0000 0.0000
vt 0.0000 1.0000
vt 1.0000 -0.0000
vt -0.0000 0.0000
vt 0.0000 1.0000
vt -0.0000 0.0000
vt 1.0000 -0.0000
vt 1.0000 1.0000
vn -1.0000 0.0000 0.0000
vn 1.0000 0.0000 0.0000
vn 0.0000 0.0000 -1.0000
vn 0.0000 0.0000 1.0000
vn 0.0000 -1.0000 0.0000
vn 0.0000 1.0000 0.0000
usemtl fcBlockMiningCharge_top
s off
f 1/1/1 2/2/1 4/3/1 3/4/1
usemtl fcBlockMiningCharge_bottom
f 7/5/2 8/6/2 6/7/2 5/8/2
usemtl fcBlockMiningCharge_side
f 3/4/3 4/3/3 8/9/3 7/10/3
f 5/8/4 6/7/4 2/11/4 1/12/4
f 3/13/5 7/10/5 5/14/5 1/15/5
f 8/16/6 4/17/6 2/18/6 6/19/6
