o fcBlockUrn
v -0.187500 -0.937500 0.187500
v -0.187500 -0.562500 0.187500
v -0.187500 -0.937500 -0.187500
v -0.187500 -0.562500 -0.187500
v 0.187500 -0.937500 0.187500
v 0.187500 -0.562500 0.187500
v 0.187500 -0.937500 -0.187500
v 0.187500 -0.562500 -0.187500
v -0.125000 -1.000250 0.125000
v -0.125000 -0.937250 0.125000
v -0.125000 -1.000250 -0.125000
v -0.125000 -0.937250 -0.125000
v 0.125000 -1.000250 0.125000
v 0.125000 -0.937250 0.125000
v 0.125000 -1.000250 -0.125000
v 0.125000 -0.937250 -0.125000
v -0.125000 -0.562750 0.125000
v -0.125000 -0.499750 0.125000
v -0.125000 -0.562750 -0.125000
v -0.125000 -0.499750 -0.125000
v 0.125000 -0.562750 0.125000
v 0.125000 -0.499750 0.125000
v 0.125000 -0.562750 -0.125000
v 0.125000 -0.499750 -0.125000
v -0.125000 -0.437750 0.125000
v -0.125000 -0.374750 0.125000
v -0.125000 -0.437750 -0.125000
v -0.125000 -0.374750 -0.125000
v 0.125000 -0.437750 0.125000
v 0.125000 -0.374750 0.125000
v 0.125000 -0.437750 -0.125000
v 0.125000 -0.374750 -0.125000
v -0.187500 -0.500250 0.187500
v -0.187500 -0.437250 0.187500
v -0.187500 -0.500250 -0.187500
v -0.187500 -0.437250 -0.187500
v 0.187500 -0.500250 0.187500
v 0.187500 -0.437250 0.187500
v 0.187500 -0.500250 -0.187500
v 0.187500 -0.437250 -0.187500
vt 0.6875 0.0625
vt 0.6875 0.4376
vt 0.3125 0.4376
vt 0.3125 0.0625
vt 0.6875 0.0624
vt 0.6875 0.4376
vt 0.3125 0.4376
vt 0.3125 0.0624
vt 0.6875 0.0624
vt 0.6875 0.4376
vt 0.3125 0.4376
vt 0.3125 0.0624
vt 0.6875 0.0625
vt 0.6875 0.4375
vt 0.3125 0.4375
vt 0.3125 0.0625
vt 0.3125 0.6875
vt 0.6875 0.6875
vt 0.6875 0.3125
vt 0.3125 0.3125
vt 0.6875 0.6875
vt 0.3125 0.6875
vt 0.3125 0.3125
vt 0.6875 0.3125
vt 0.6250 0.0000
vt 0.6250 0.0625
vt 0.3750 0.0625
vt 0.3750 0.0000
vt 0.6250 0.0000
vt 0.6250 0.0626
vt 0.3750 0.0626
vt 0.3750 0.0000
vt 0.6250 -0.0000
vt 0.6250 0.0626
vt 0.3750 0.0626
vt 0.3750 0.0000
vt 0.6250 0.0000
vt 0.6250 0.0626
vt 0.3750 0.0626
vt 0.3750 0.0000
vt 0.3750 0.6250
vt 0.6250 0.6250
vt 0.6250 0.3750
vt 0.3750 0.3750
vt 0.6250 0.4374
vt 0.6250 0.5003
vt 0.3750 0.5003
vt 0.3750 0.4374
vt 0.6250 0.4374
vt 0.6250 0.5003
vt 0.3750 0.5003
vt 0.3750 0.4374
vt 0.6250 0.4374
vt 0.6250 0.5003
vt 0.3750 0.5003
vt 0.3750 0.4374
vt 0.6250 0.4375
vt 0.6250 0.5000
vt 0.3750 0.5000
vt 0.3750 0.4375
vt 0.6250 0.5622
vt 0.6250 0.6250
vt 0.3750 0.6250
vt 0.3750 0.5622
vt 0.6250 0.5622
vt 0.6250 0.6250
vt 0.3750 0.6250
vt 0.3750 0.5622
vt 0.6250 0.5622
vt 0.6250 0.6250
vt 0.3750 0.6250
vt 0.3750 0.5622
vt 0.6250 0.5625
vt 0.6250 0.6250
vt 0.3750 0.6250
vt 0.3750 0.5625
vt 0.3750 0.3750
vt 0.6250 0.3750
vt 0.6875 0.4997
vt 0.6875 0.5628
vt 0.3125 0.5628
vt 0.3125 0.4997
vt 0.6875 0.4997
vt 0.6875 0.5628
vt 0.3125 0.5628
vt 0.3125 0.4997
vt 0.6875 0.4997
vt 0.6875 0.5628
vt 0.3125 0.5628
vt 0.3125 0.4997
vt 0.6875 0.5000
vt 0.6875 0.5625
vt 0.3125 0.5625
vt 0.3125 0.5000
vt 0.3125 0.6875
vt 0.6875 0.6875
vt 0.6875 0.3125
vt 0.3125 0.3125
vt 0.6875 0.6875
vt 0.3125 0.6875
vt 0.3125 0.3125
vt 0.6875 0.3125
vn -1.0000 0.0000 0.0000
vn 0.0000 0.0000 -1.0000
vn 1.0000 0.0000 0.0000
vn 0.0000 0.0000 1.0000
vn 0.0000 -1.0000 0.0000
vn 0.0000 1.0000 0.0000
usemtl fcBlockUrn
s off
f 1/1/1 2/2/1 4/3/1 3/4/1
f 3/5/2 4/6/2 8/7/2 7/8/2
f 7/9/3 8/10/3 6/11/3 5/12/3
f 5/13/4 6/14/4 2/15/4 1/16/4
f 3/17/5 7/18/5 5/19/5 1/20/5
f 8/21/6 4/22/6 2/23/6 6/24/6
f 9/25/1 10/26/1 12/27/1 11/28/1
f 11/29/2 12/30/2 16/31/2 15/32/2
f 15/33/3 16/34/3 14/35/3 13/36/3
f 13/37/4 14/38/4 10/39/4 9/40/4
f 11/41/5 15/42/5 13/43/5 9/44/5
f 17/45/1 18/46/1 20/47/1 19/48/1
f 19/49/2 20/50/2 24/51/2 23/52/2
f 23/53/3 24/54/3 22/55/3 21/56/3
f 21/57/4 22/58/4 18/59/4 17/60/4
f 25/61/1 26/62/1 28/63/1 27/64/1
f 27/65/2 28/66/2 32/67/2 31/68/2
f 31/69/3 32/70/3 30/71/3 29/72/3
f 29/73/4 30/74/4 26/75/4 25/76/4
f 32/70/6 28/63/6 26/77/6 30/78/6
f 33/79/1 34/80/1 36/81/1 35/82/1
f 35/83/2 36/84/2 40/85/2 39/86/2
f 39/87/3 40/88/3 38/89/3 37/90/3
f 37/91/4 38/92/4 34/93/4 33/94/4
f 35/95/5 39/96/5 37/97/5 33/98/5
f 40/99/6 36/100/6 34/101/6 38/102/6
