o fcBlockBloodWood
v -0.500000 0.500000 0.500000
v -0.500000 0.500000 -0.500000
v -0.500000 -0.500000 -0.500000
v -0.500000 -0.500000 0.500000
v 0.500000 0.500000 -0.500000
v 0.500000 -0.500000 -0.500000
v 0.500000 0.500000 0.500000
v 0.500000 -0.500000 0.500000
vn 0.0000 -1.0000 -0.0000
vn 0.0000 1.0000 0.0000
vn -1.0000 0.0000 0.0000
vn 0.0000 0.0000 -1.0000
vn 1.0000 0.0000 0.0000
vn 0.0000 -0.0000 1.0000
usemtl fcBlockBloodWood
s 1
f 4//1 3//1 6//1 8//1
f 7//2 5//2 2//2 1//2
usemtl fcBlockBloodWood_side
f 1//3 2//3 3//3 4//3
f 2//4 5//4 6//4 3//4
f 5//5 7//5 8//5 6//5
f 7//6 1//6 4//6 8//6
