o fcBlockColumnStone
v -0.312500 -0.500000 0.312500
v -0.312500 0.500000 0.312500
v -0.312500 -0.500000 -0.312500
v -0.312500 0.500000 -0.312500
v 0.312500 -0.500000 0.312500
v 0.312500 0.500000 0.312500
v 0.312500 -0.500000 -0.312500
v 0.312500 0.500000 -0.312500
vt 0.8125 -0.0000
vt 0.8125 1.0000
vt 0.1875 1.0000
vt 0.1875 -0.0000
vt 0.8125 -0.0000
vt 0.8125 1.0000
vt 0.1875 1.0000
vt 0.1875 -0.0000
vt 0.8125 -0.0000
vt 0.8125 1.0000
vt 0.1875 1.0000
vt 0.1875 -0.0000
vt 0.8125 -0.0000
vt 0.8125 1.0000
vt 0.1875 1.0000
vt 0.1875 0.0000
vt 0.1875 0.1875
vt 0.8125 0.1875
vt 0.8125 0.8125
vt 0.1875 0.8125
vt 0.8125 0.8125
vt 0.1875 0.8125
vt 0.1875 0.1875
vt 0.8125 0.1875
vn -1.0000 0.0000 0.0000
vn 0.0000 0.0000 -1.0000
vn 1.0000 0.0000 0.0000
vn 0.0000 0.0000 1.0000
vn 0.0000 -1.0000 0.0000
vn 0.0000 1.0000 0.0000
usemtl fcBlockColumnStone_side
s off
f 1/1/1 2/2/1 4/3/1 3/4/1
f 3/5/2 4/6/2 8/7/2 7/8/2
f 7/9/3 8/10/3 6/11/3 5/12/3
f 5/13/4 6/14/4 2/15/4 1/16/4
f 3/17/5 7/18/5 5/19/5 1/20/5
f 8/21/6 4/22/6 2/23/6 6/24/6
