o fcBlockStake_string_xyz
v -0.250000 -0.003906 0.003906
v -0.250000 0.003906 0.003906
v -0.250000 -0.003906 -0.003906
v -0.250000 0.003906 -0.003906
v 0.250000 -0.003906 0.003906
v 0.250000 -0.003906 -0.003906
v 0.250000 0.003906 0.003906
v 0.250000 0.003906 -0.003906
v 0.003906 -0.003906 -0.003906
v 0.003906 0.003906 -0.003906
v 0.003906 -0.003906 0.003906
v 0.003906 0.003906 0.003906
v -0.003906 0.003906 0.250000
v 0.003906 0.003906 0.250000
v 0.003906 -0.003906 0.250000
v -0.003906 -0.003906 0.250000
v -0.003906 -0.003906 -0.003906
v -0.003906 0.003906 0.003906
v -0.003906 0.003906 -0.003906
v -0.003906 -0.003906 0.003906
v -0.003906 0.003906 -0.250000
v 0.003906 0.003906 -0.250000
v 0.003906 -0.003906 -0.250000
v -0.003906 -0.003906 -0.250000
v -0.003906 0.250000 -0.003906
v 0.003906 0.250000 -0.003906
v 0.003906 0.250000 0.003906
v -0.003906 0.250000 0.003906
v -0.003906 -0.250000 0.003906
v 0.003906 -0.250000 0.003906
v 0.003906 -0.250000 -0.003906
v -0.003906 -0.250000 -0.003906
vn -1.0000 0.0000 0.0000
vn 0.0000 0.0000 -1.0000
vn 1.0000 0.0000 0.0000
vn 0.0000 0.0000 1.0000
vn 0.0000 1.0000 0.0000
vn 0.0000 -1.0000 0.0000
usemtl None
s off
f 1//1 2//1 4//1 3//1
f 24//2 21//2 22//2 23//2
f 7//3 5//3 6//3 8//3
f 20//4 18//4 2//4 1//4
f 18//1 20//1 16//1 13//1
f 19//5 4//5 2//5 18//5
f 10//5 12//5 7//5 8//5
f 11//4 20//4 29//4 30//4
f 9//2 10//2 8//2 6//2
f 17//1 19//1 21//1 24//1
f 12//5 18//5 13//5 14//5
f 9//6 17//6 24//6 23//6
f 11//3 12//3 14//3 15//3
f 10//3 9//3 23//3 22//3
f 3//2 4//2 19//2 17//2
f 3//6 17//6 20//6 1//6
f 20//6 11//6 15//6 16//6
f 15//4 14//4 13//4 16//4
f 19//5 10//5 22//5 21//5
f 12//3 10//3 26//3 27//3
f 11//6 9//6 6//6 5//6
f 12//4 11//4 5//4 7//4
f 25//5 28//5 27//5 26//5
f 19//1 18//1 28//1 25//1
f 10//2 19//2 25//2 26//2
f 18//4 12//4 27//4 28//4
f 32//6 31//6 30//6 29//6
f 9//3 11//3 30//3 31//3
f 17//2 9//2 31//2 32//2
f 20//1 17//1 32//1 29//1
