o fcBlockTableWoodOak
v -0.500000 0.375000 0.500000
v -0.500000 0.500000 0.500000
v -0.500000 0.500000 -0.500000
v -0.500000 0.375000 -0.500000
v 0.500000 0.500000 -0.500000
v 0.500000 0.375000 -0.500000
v 0.500000 0.500000 0.500000
v 0.500000 0.375000 0.500000
v -0.125000 -0.500000 0.125000
v -0.125000 0.375000 0.125000
v -0.125000 0.375000 -0.125000
v -0.125000 -0.500000 -0.125000
v 0.125000 0.375000 -0.125000
v 0.125000 -0.500000 -0.125000
v 0.125000 0.375000 0.125000
v 0.125000 -0.500000 0.125000
vt 1.0000 0.8750
vt 1.0000 1.0000
vt 0.0000 1.0000
vt 0.0000 0.8750
vt 1.0000 0.8750
vt 1.0000 1.0000
vt -0.0000 1.0000
vt -0.0000 0.8750
vt 1.0000 0.8750
vt 1.0000 1.0000
vt -0.0000 1.0000
vt -0.0000 0.8750
vt 1.0000 0.8750
vt 1.0000 1.0000
vt 0.0000 1.0000
vt 0.0000 0.8750
vt -0.0000 0.0000
vt 1.0000 -0.0000
vt 1.0000 1.0000
vt 0.0000 1.0000
vt -0.0000 0.0000
vt 1.0000 -0.0000
vt 0.6250 -0.0000
vt 0.6250 0.8750
vt 0.3750 0.8750
vt 0.3750 -0.0000
vt 0.6250 -0.0000
vt 0.6250 0.8750
vt 0.3750 0.8750
vt 0.3750 -0.0000
vt 0.6250 -0.0000
vt 0.6250 0.8750
vt 0.3750 0.8750
vt 0.3750 -0.0000
vt 0.6250 -0.0000
vt 0.6250 0.8750
vt 0.3750 0.8750
vt 0.3750 -0.0000
vt 0.3750 0.3750
vt 0.6250 0.3750
vt 0.6250 0.6250
vt 0.3750 0.6250
vn -1.0000 -0.0000 0.0000
vn 0.0000 0.0000 -1.0000
vn 1.0000 0.0000 0.0000
vn 0.0000 0.0000 1.0000
vn 0.0000 -1.0000 -0.0000
vn 0.0000 1.0000 0.0000
usemtl FCBlockDecorativeWoodOak
s 1
f 1/1/1 2/2/1 3/3/1 4/4/1
f 4/5/2 3/6/2 5/7/2 6/8/2
f 6/9/3 5/10/3 7/11/3 8/12/3
f 8/13/4 7/14/4 2/15/4 1/16/4
f 4/17/5 6/18/5 8/19/5 1/20/5
f 5/10/6 3/3/6 2/21/6 7/22/6
f 9/23/1 10/24/1 11/25/1 12/26/1
f 12/27/2 11/28/2 13/29/2 14/30/2
f 14/31/3 13/32/3 15/33/3 16/34/3
f 16/35/4 15/36/4 10/37/4 9/38/4
f 12/39/5 14/40/5 16/41/5 9/42/5
