# Blender v2.78 (sub 0) OBJ File: ''
# www.blender.org
mtllib fcBlockVessel.mtl
o Cauldron_Cube.014
v -0.500000 -0.375000 0.500000
v -0.500000 0.375000 0.500000
v -0.500000 -0.375000 -0.500000
v -0.500000 0.375000 -0.500000
v 0.500000 -0.375000 0.500000
v 0.500000 0.375000 0.500000
v 0.500000 -0.375000 -0.500000
v 0.500000 0.375000 -0.500000
v -0.437500 0.375000 0.437500
v -0.437500 0.500000 0.437500
v -0.437500 0.375000 -0.437500
v -0.437500 0.500000 -0.437500
v 0.437500 0.375000 0.437500
v 0.437500 0.500000 0.437500
v 0.437500 0.375000 -0.437500
v 0.437500 0.500000 -0.437500
v -0.437500 -0.500000 0.437500
v -0.437500 -0.375000 0.437500
v -0.437500 -0.500000 -0.437500
v -0.437500 -0.375000 -0.437500
v 0.437500 -0.500000 0.437500
v 0.437500 -0.375000 0.437500
v 0.437500 -0.500000 -0.437500
v 0.437500 -0.375000 -0.437500
v -0.312500 0.375000 -0.437500
v -0.312500 0.500000 -0.437500
v -0.312500 0.375000 0.437500
v -0.312500 0.500000 0.437500
v 0.312500 0.500000 -0.437500
v 0.312500 0.375000 0.437500
v 0.312500 0.375000 -0.437500
v 0.312500 0.500000 0.437500
v -0.437500 0.375000 -0.312500
v -0.437500 0.500000 -0.312500
v 0.437500 0.375000 -0.312500
v 0.437500 0.500000 -0.312500
v -0.312500 0.500000 -0.312500
v -0.312500 0.375000 -0.312500
v 0.312500 0.500000 -0.312500
v 0.312500 0.375000 -0.312500
v -0.437500 0.375000 0.312500
v 0.437500 0.500000 0.312500
v -0.312500 0.500000 0.312500
v -0.312500 0.375000 0.312500
v 0.312500 0.500000 0.312500
v 0.312500 0.375000 0.312500
v -0.437500 0.500000 0.312500
v 0.437500 0.375000 0.312500
v -0.312500 -0.375000 -0.500000
v -0.312500 0.375000 -0.500000
v -0.312500 -0.375000 0.500000
v -0.312500 0.375000 0.500000
v 0.312500 0.375000 -0.500000
v 0.312500 -0.375000 0.500000
v 0.312500 -0.375000 -0.500000
v 0.312500 0.375000 0.500000
v -0.500000 -0.375000 -0.312500
v -0.500000 0.375000 -0.312500
v 0.500000 -0.375000 -0.312500
v 0.500000 0.375000 -0.312500
v -0.312500 0.375000 -0.312500
v -0.312500 -0.375000 -0.312500
v 0.312500 0.375000 -0.312500
v 0.312500 -0.375000 -0.312500
v -0.500000 -0.375000 0.312500
v 0.500000 0.375000 0.312500
v -0.312500 0.375000 0.312500
v -0.312500 -0.375000 0.312500
v 0.312500 0.375000 0.312500
v 0.312500 -0.375000 0.312500
v -0.500000 0.375000 0.312500
v 0.500000 -0.375000 0.312500
v -0.312500 0.500000 0.312500
v 0.312500 0.500000 0.312500
v -0.312500 0.500000 -0.312500
v 0.312500 0.500000 -0.312500
vt 0.5693 0.1250
vt 0.5693 0.0000
vt 0.5803 0.0000
vt 0.5803 0.1250
vt 0.1875 0.1875
vt 0.0625 0.1875
vt 0.0625 0.0625
vt 0.1875 0.0625
vt 0.0625 0.0000
vt 0.0625 1.0000
vt 0.0000 1.0000
vt 0.0000 0.0000
vt 0.8125 0.1875
vt 0.8125 0.0625
vt 0.5693 0.8750
vt 0.5693 0.7500
vt 0.5803 0.7500
vt 0.5803 0.8750
vt 0.9375 0.1875
vt 0.9375 0.0625
vt 0.5036 0.7500
vt 0.5036 0.1250
vt 0.5146 0.1250
vt 0.5146 0.7500
vt 0.9375 0.9375
vt 0.8125 0.9375
vt 0.8125 0.8125
vt 0.9375 0.8125
vt 0.5036 0.8750
vt 0.5146 0.8750
vt 0.1875 0.9375
vt 0.1875 0.8125
vt 0.0625 0.9375
vt 0.0625 0.8125
vt 0.5036 0.0000
vt 0.5146 0.0000
vt 0.1875 0.8125
vt 0.1875 0.1875
vt 0.8125 0.1875
vt 0.8125 0.8125
vt 0.1875 0.1875
vt 0.0000 0.1875
vt 0.0000 -0.0000
vt 0.1875 -0.0000
vt 0.8125 0.1875
vt 0.8125 -0.0000
vt 1.0000 0.1875
vt 1.0000 0.0000
vt 1.0000 1.0000
vt 0.8125 1.0000
vt 0.8125 0.8125
vt 1.0000 0.8125
vt 0.1875 1.0000
vt 0.1875 0.8125
vt 0.0000 1.0000
vt 0.0000 0.8125
vt 0.8125 0.8125
vt 1.0000 0.8125
vt 1.0000 1.0000
vt 0.8125 1.0000
vt 0.0625 0.0625
vt 0.9375 0.0625
vt 0.9375 0.9375
vt 0.0625 0.9375
vt 0.1875 0.8750
vt 0.8125 0.8750
vt 0.8125 1.0000
vt 0.1875 1.0000
vt 0.1875 1.0000
vt 0.1875 0.8750
vt 0.8125 0.8750
vt 0.8125 1.0000
vt 0.8125 1.0000
vt 0.1875 1.0000
vt 0.1875 0.8750
vt 0.8125 0.8750
vt 0.8125 0.8750
vt 0.8125 1.0000
vt 0.1875 1.0000
vt 0.1875 0.8750
vt 0.0000 0.8125
vt 0.1875 0.8125
vt 0.1875 1.0000
vt 0.0000 1.0000
vt 0.1875 0.0000
vt 0.8125 0.0000
vt 0.8125 0.1875
vt 0.1875 0.1875
vt 0.0000 0.0000
vt 0.0000 0.1875
vt 1.0000 0.0000
vt 1.0000 0.1875
vt 0.8125 0.1250
vt 0.8125 0.8750
vt 0.1875 0.8750
vt 0.1875 0.1250
vt 0.8125 0.8750
vt 0.1875 0.8750
vt 0.1875 0.1250
vt 0.8125 0.1250
vt 0.1875 0.8750
vt 0.1875 0.1250
vt 0.8125 0.1250
vt 0.8125 0.8750
vt 0.1875 0.1250
vt 0.8125 0.1250
vt 0.8125 0.8750
vt 0.1875 0.8750
vt 0.1875 0.1250
vt 0.1875 0.8750
vt 0.0000 0.8750
vt 0.0000 0.1250
vt 0.1875 0.1250
vt 0.1875 0.8750
vt 0.0000 0.8750
vt 0.0000 0.1250
vt 0.1875 0.1250
vt 0.1875 0.8750
vt 0.0000 0.8750
vt 0.0000 0.1250
vt 0.1875 0.1250
vt 0.1875 0.8750
vt 0.0000 0.8750
vt 0.0000 0.1250
vt 0.1875 0.8750
vt 0.1875 1.0000
vt 0.0625 1.0000
vt 0.0625 0.8750
vt 0.1875 0.8750
vt 0.1875 1.0000
vt 0.0625 1.0000
vt 0.0625 0.8750
vt 0.1875 0.8750
vt 0.1875 1.0000
vt 0.0625 1.0000
vt 0.0625 0.8750
vt 0.1875 0.8750
vt 0.1875 1.0000
vt 0.0625 1.0000
vt 0.0625 0.8750
vt 0.9375 0.0000
vt 0.9375 0.1250
vt 0.0625 0.1250
vt 0.0625 -0.0000
vt 0.9375 0.0000
vt 0.9375 0.1250
vt 0.0625 0.1250
vt 0.0625 0.0000
vt 0.9375 -0.0000
vt 0.9375 0.1250
vt 0.0625 0.1250
vt 0.0625 0.0000
vt 0.9375 0.0000
vt 0.9375 0.1250
vt 0.0625 0.1250
vt 0.0625 0.0000
vt 0.8125 0.8750
vt 0.8125 1.0000
vt 0.9375 0.8750
vt 0.9375 1.0000
vt 0.8125 1.0000
vt 0.8125 0.8750
vt 0.9375 0.8750
vt 0.9375 1.0000
vt 0.9375 0.8750
vt 0.9375 1.0000
vt 0.8125 1.0000
vt 0.8125 0.8750
vt 0.8125 0.8750
vt 0.8125 1.0000
vt 0.9375 0.8750
vt 0.9375 1.0000
vt 0.8125 0.1250
vt 0.8125 0.8750
vt 1.0000 0.1250
vt 1.0000 0.8750
vt 0.8125 0.8750
vt 0.8125 0.1250
vt 1.0000 0.1250
vt 1.0000 0.8750
vt 1.0000 0.1250
vt 1.0000 0.8750
vt 0.8125 0.8750
vt 0.8125 0.1250
vt 0.8125 0.1250
vt 0.8125 0.8750
vt 1.0000 0.1250
vt 1.0000 0.8750
vn 0.0000 -1.0000 0.0000
vn 0.0000 1.0000 0.0000
vn 0.0000 0.0000 -1.0000
vn 1.0000 0.0000 0.0000
vn -1.0000 0.0000 0.0000
vn 0.0000 0.0000 1.0000
usemtl fcBlockVessel_top
s off
f 46/1/1 48/2/1 13/3/1 30/4/1
f 43/5/2 47/6/2 10/7/2 28/8/2
f 24/9/2 20/10/2 18/11/2 22/12/2
f 45/13/2 43/5/2 28/8/2 32/14/2
f 41/15/1 44/16/1 27/17/1 9/18/1
f 42/19/2 45/13/2 32/14/2 14/20/2
f 44/16/1 46/1/1 30/4/1 27/17/1
f 25/21/1 31/22/1 40/23/1 38/24/1
f 16/25/2 29/26/2 39/27/2 36/28/2
f 11/29/1 25/21/1 38/24/1 33/30/1
f 29/26/2 26/31/2 37/32/2 39/27/2
f 26/31/2 12/33/2 34/34/2 37/32/2
f 31/22/1 15/35/1 35/36/1 40/23/1
f 36/28/2 39/27/2 45/13/2 42/19/2
f 33/30/1 38/24/1 44/16/1 41/15/1
f 37/32/2 34/34/2 47/6/2 43/5/2
f 40/23/1 35/36/1 48/2/1 46/1/1
f 73/37/2 74/38/2 76/39/2 75/40/2
usemtl fcBlockVesselWideBand_top
f 67/41/2 71/42/2 2/43/2 52/44/2
f 69/45/2 67/41/2 52/44/2 56/46/2
f 66/47/2 69/45/2 56/46/2 6/48/2
f 8/49/2 53/50/2 63/51/2 60/52/2
f 53/50/2 50/53/2 61/54/2 63/51/2
f 50/53/2 4/55/2 58/56/2 61/54/2
f 60/52/2 63/51/2 69/45/2 66/47/2
f 61/54/2 58/56/2 71/42/2 67/41/2
usemtl fcBlockVessel_bottom
f 70/57/1 72/58/1 5/59/1 54/60/1
f 19/61/1 23/62/1 21/63/1 17/64/1
f 46/65/3 44/66/3 43/67/3 45/68/3
f 43/69/4 44/70/4 38/71/4 37/72/4
f 45/73/5 39/74/5 40/75/5 46/76/5
f 40/77/6 39/78/6 37/79/6 38/80/6
f 65/81/1 68/82/1 51/83/1 1/84/1
f 68/82/1 70/57/1 54/60/1 51/83/1
f 49/85/1 55/86/1 64/87/1 62/88/1
f 3/89/1 49/85/1 62/88/1 57/90/1
f 55/86/1 7/91/1 59/92/1 64/87/1
f 64/93/6 63/94/6 61/95/6 62/96/6
f 57/90/1 62/88/1 68/82/1 65/81/1
f 69/97/5 63/98/5 64/99/5 70/100/5
f 64/87/1 59/92/1 72/58/1 70/57/1
f 67/101/4 68/102/4 62/103/4 61/104/4
f 70/105/3 68/106/3 67/107/3 69/108/3
usemtl fcBlockVessel_side
f 57/109/5 58/110/5 4/111/5 3/112/5
f 55/113/3 53/114/3 8/115/3 7/116/3
f 72/117/4 66/118/4 6/119/4 5/120/4
f 51/121/6 52/122/6 2/123/6 1/124/6
f 33/125/5 34/126/5 12/127/5 11/128/5
f 31/129/3 29/130/3 16/131/3 15/132/3
f 48/133/4 42/134/4 14/135/4 13/136/4
f 27/137/6 28/138/6 10/139/6 9/140/6
f 17/141/5 18/142/5 20/143/5 19/144/5
f 19/145/3 20/146/3 24/147/3 23/148/3
f 23/149/4 24/150/4 22/151/4 21/152/4
f 21/153/6 22/154/6 18/155/6 17/156/6
f 30/157/6 32/158/6 28/138/6 27/137/6
f 11/159/3 12/160/3 26/161/3 25/162/3
f 13/163/6 14/164/6 32/158/6 30/157/6
f 25/162/3 26/161/3 29/130/3 31/129/3
f 15/165/4 16/166/4 36/167/4 35/168/4
f 41/169/5 47/170/5 34/126/5 33/125/5
f 9/171/5 10/172/5 47/170/5 41/169/5
f 35/168/4 36/167/4 42/134/4 48/133/4
f 54/173/6 56/174/6 52/122/6 51/121/6
f 3/175/3 4/176/3 50/177/3 49/178/3
f 5/179/6 6/180/6 56/174/6 54/173/6
f 49/178/3 50/177/3 53/114/3 55/113/3
f 7/181/4 8/182/4 60/183/4 59/184/4
f 65/185/5 71/186/5 58/110/5 57/109/5
f 1/187/5 2/188/5 71/186/5 65/185/5
f 59/184/4 60/183/4 66/118/4 72/117/4
