o fcBlockGroth_5
v -0.500000 -0.500000 0.500000
v -0.500000 -0.125000 0.500000
v -0.500000 -0.125000 -0.500000
v -0.500000 -0.500000 -0.500000
v 0.500000 -0.125000 -0.500000
v 0.500000 -0.500000 -0.500000
v 0.500000 -0.125000 0.500000
v 0.500000 -0.500000 0.500000
vt 0.0000 1.0000
vt 1.0000 1.0000
vt 1.0000 0.0000
vt 0.0000 0.0000
vt 1.0000 1.0000
vt 0.0000 1.0000
vt 0.0000 0.0000
vt 1.0000 0.0000
vt 0.0000 0.3750
vt 1.0000 0.3750
vt 1.0000 0.0000
vt 0.0000 0.0000
vt 0.0000 0.3750
vt 1.0000 0.3750
vt 1.0000 0.0000
vt 0.0000 0.3750
vt 0.0000 0.0000
vt 1.0000 0.3750
vn 0.0000 -1.0000 -0.0000
vn 0.0000 1.0000 0.0000
vn -1.0000 -0.0000 0.0000
vn 0.0000 0.0000 -1.0000
vn 1.0000 0.0000 0.0000
vn 0.0000 -0.0000 1.0000
usemtl fcBlockGroth_bottom
s 1
f 4/1/1 6/2/1 8/3/1 1/4/1
usemtl fcBlockGroth_top
f 5/5/2 3/6/2 2/7/2 7/8/2
usemtl fcBlockGroth_side
f 1/4/3 2/9/3 3/10/3 4/11/3
f 4/12/4 3/13/4 5/14/4 6/15/4
f 6/15/5 5/14/5 7/16/5 8/17/5
f 8/3/6 7/18/6 2/9/6 1/4/6
