o fcBlockInfernalEnchanter
v 0.500000 0.000000 -0.499999
v -0.500000 0.000000 -0.500000
v -0.500000 -0.000000 0.500000
v 0.499999 -0.000000 0.500000
v 0.500000 -0.500000 -0.500000
v 0.500000 -0.500000 0.500000
v -0.500000 -0.500000 0.500000
v -0.500000 -0.500000 -0.500000
v -0.437500 0.000000 -0.312500
v -0.437500 0.250000 -0.312500
v -0.437500 0.250000 -0.437500
v -0.437500 0.000000 -0.437500
v -0.312500 0.250000 -0.437500
v -0.312500 0.000000 -0.437500
v -0.312500 0.250000 -0.312500
v -0.312500 0.000000 -0.312500
v 0.312500 0.000000 -0.312500
v 0.312500 0.250000 -0.312500
v 0.312500 0.250000 -0.437500
v 0.312500 0.000000 -0.437500
v 0.437500 0.250000 -0.437500
v 0.437500 0.000000 -0.437500
v 0.437500 0.250000 -0.312500
v 0.437500 0.000000 -0.312500
v 0.312500 -0.000000 0.437500
v 0.312500 0.250000 0.437500
v 0.312500 0.250000 0.312500
v 0.312500 -0.000000 0.312500
v 0.437500 0.250000 0.312500
v 0.437500 -0.000000 0.312500
v 0.437500 0.250000 0.437500
v 0.437500 -0.000000 0.437500
v -0.437500 -0.000000 0.437500
v -0.437500 0.250000 0.437500
v -0.437500 0.250000 0.312500
v -0.437500 -0.000000 0.312500
v -0.312500 0.250000 0.312500
v -0.312500 -0.000000 0.312500
v -0.312500 0.250000 0.437500
v -0.312500 -0.000000 0.437500
v -0.390625 0.250000 -0.359375
v -0.390625 0.312500 -0.359375
v -0.390625 0.312500 -0.390625
v -0.390625 0.250000 -0.390625
v -0.359375 0.312500 -0.390625
v -0.359375 0.250000 -0.390625
v -0.359375 0.312500 -0.359375
v -0.359375 0.250000 -0.359375
v 0.359375 0.250000 -0.359375
v 0.359375 0.312500 -0.359375
v 0.359375 0.312500 -0.390625
v 0.359375 0.250000 -0.390625
v 0.390625 0.312500 -0.390625
v 0.390625 0.250000 -0.390625
v 0.390625 0.312500 -0.359375
v 0.390625 0.250000 -0.359375
v 0.359375 0.250000 0.390625
v 0.359375 0.312500 0.390625
v 0.359375 0.312500 0.359375
v 0.359375 0.250000 0.359375
v 0.390625 0.312500 0.359375
v 0.390625 0.250000 0.359375
v 0.390625 0.312500 0.390625
v 0.390625 0.250000 0.390625
v -0.390625 0.250000 0.390625
v -0.390625 0.312500 0.390625
v -0.390625 0.312500 0.359375
v -0.390625 0.250000 0.359375
v -0.359375 0.312500 0.359375
v -0.359375 0.250000 0.359375
v -0.359375 0.312500 0.390625
v -0.359375 0.250000 0.390625
vt 0.0000 0.0000
vt 1.0000 0.0000
vt 1.0000 1.0000
vt 0.0000 1.0000
vt 0.5625 0.2500
vt 0.5625 -0.0000
vt 0.4375 0.0000
vt 0.4375 0.2500
vt 0.4375 -0.0000
vt 0.4375 0.2500
vt 0.5625 0.2500
vt 0.5625 -0.0000
vt 0.4375 0.2500
vt 0.4375 -0.0000
vt 0.5625 -0.0000
vt 0.5625 0.2500
vt 0.4375 0.2500
vt 0.4375 -0.0000
vt 0.4375 -0.0000
vt 0.4375 0.2500
vt 0.5625 0.2500
vt 0.5625 -0.0000
vt 0.5625 0.3750
vt 0.4375 0.3750
vt 0.4375 0.5000
vt 0.5625 0.5000
vt 0.4375 -0.0000
vt 0.4375 0.2500
vt 0.5625 0.2500
vt 0.5625 -0.0000
vt 0.4375 0.2500
vt 0.4375 -0.0000
vt 0.5625 -0.0000
vt 0.5625 0.2500
vt 0.5625 0.3750
vt 0.4375 0.3750
vt 0.4375 0.5000
vt 0.5625 0.5000
vt 0.4375 0.0000
vt 0.4375 0.2500
vt 0.5625 0.2500
vt 0.5625 0.0000
vt 0.4375 0.0000
vt 0.4375 0.2500
vt 0.5625 0.2500
vt 0.5625 0.0000
vt 0.4375 0.2500
vt 0.4375 0.0000
vt 0.5625 0.0000
vt 0.5625 0.2500
vt 0.0000 0.0000
vt 0.0000 0.0000
vt 0.0000 0.0000
vt 0.0000 0.0000
vt 0.4375 0.0000
vt 0.4375 0.2500
vt 0.5625 0.2500
vt 0.5625 0.0000
vt 0.4375 0.0000
vt 0.4375 0.2500
vt 0.5625 0.2500
vt 0.5625 0.0000
vt 0.4375 0.2500
vt 0.4375 0.0000
vt 0.5625 0.0000
vt 0.5625 0.2500
vt 0.0000 0.0000
vt 0.0000 0.0000
vt 0.0000 0.0000
vt 0.0000 0.0000
vt 1.0000 0.0000
vt 1.0000 0.5000
vt 0.0000 0.5000
vt 0.0000 0.0000
vt 1.0000 0.0000
vt 1.0000 0.5000
vt 0.0000 0.5000
vt 0.0000 0.0000
vt 1.0000 0.0000
vt 1.0000 0.5000
vt 0.0000 0.5000
vt 0.0000 0.0000
vt 0.0000 0.5000
vt 0.0000 0.0000
vt 1.0000 0.0000
vt 1.0000 0.5000
vt 1.0000 1.0000
vt 0.0000 1.0000
vt 0.8320 0.1289
vt 0.8945 0.1289
vt 0.8945 0.0977
vt 0.8320 0.0977
vt 0.0664 0.8633
vt 0.0664 0.9258
vt 0.0977 0.9258
vt 0.0977 0.8633
vt 0.8320 0.0977
vt 0.8945 0.0977
vt 0.8945 0.1289
vt 0.8320 0.1289
vt 0.0977 0.8633
vt 0.0977 0.9258
vt 0.0664 0.9258
vt 0.0664 0.8633
vt 0.0977 0.0977
vt 0.0664 0.0977
vt 0.0664 0.1289
vt 0.0977 0.1289
vt 0.8320 0.1289
vt 0.8945 0.1289
vt 0.8945 0.0977
vt 0.8320 0.0977
vt 0.8164 0.8633
vt 0.8164 0.9258
vt 0.8477 0.9258
vt 0.8477 0.8633
vt 0.8320 0.0977
vt 0.8945 0.0977
vt 0.8945 0.1289
vt 0.8320 0.1289
vt 0.8477 0.8633
vt 0.8477 0.9258
vt 0.8164 0.9258
vt 0.8164 0.8633
vt 0.8477 0.0977
vt 0.8164 0.0977
vt 0.8164 0.1289
vt 0.8477 0.1289
vt 0.8320 0.8789
vt 0.8945 0.8789
vt 0.8945 0.8477
vt 0.8320 0.8477
vt 0.8164 0.8633
vt 0.8164 0.9258
vt 0.8477 0.9258
vt 0.8477 0.8633
vt 0.8320 0.8477
vt 0.8945 0.8477
vt 0.8945 0.8789
vt 0.8320 0.8789
vt 0.8477 0.8633
vt 0.8477 0.9258
vt 0.8164 0.9258
vt 0.8164 0.8633
vt 0.8477 0.8477
vt 0.8164 0.8477
vt 0.8164 0.8789
vt 0.8477 0.8789
vt 0.8320 0.8789
vt 0.8945 0.8789
vt 0.8945 0.8477
vt 0.8320 0.8477
vt 0.0664 0.8633
vt 0.0664 0.9258
vt 0.0977 0.9258
vt 0.0977 0.8633
vt 0.8320 0.8477
vt 0.8945 0.8477
vt 0.8945 0.8789
vt 0.8320 0.8789
vt 0.0977 0.8633
vt 0.0977 0.9258
vt 0.0664 0.9258
vt 0.0664 0.8633
vt 0.0977 0.8477
vt 0.0664 0.8477
vt 0.0664 0.8789
vt 0.0977 0.8789
vn -0.0000 1.0000 0.0000
vn -1.0000 0.0000 0.0000
vn 0.0000 0.0000 -1.0000
vn 1.0000 0.0000 0.0000
vn 0.0000 -0.0000 1.0000
vn 0.0000 -1.0000 -0.0000
usemtl fcBlockInfernalEnchanter_top
s 1
f 1/1/1 2/2/1 3/3/1 4/4/1
usemtl fcBlockCandle_c00
f 9/5/2 10/6/2 11/7/2 12/8/2
f 12/9/3 11/10/3 13/11/3 14/12/3
f 14/12/4 13/11/4 15/13/4 16/14/4
f 16/15/5 15/16/5 10/17/5 9/18/5
f 17/19/2 18/20/2 19/21/2 20/22/2
f 13/23/1 11/24/1 10/25/1 15/26/1
f 20/27/3 19/28/3 21/29/3 22/30/3
f 22/30/4 21/29/4 23/31/4 24/32/4
f 24/33/5 23/34/5 18/20/5 17/19/5
f 21/35/1 19/36/1 18/37/1 23/38/1
f 25/39/2 26/40/2 27/41/2 28/42/2
f 28/43/3 27/44/3 29/45/3 30/46/3
f 30/46/4 29/45/4 31/47/4 32/48/4
f 32/49/5 31/50/5 26/40/5 25/39/5
f 29/51/1 27/52/1 26/53/1 31/54/1
f 33/55/2 34/56/2 35/57/2 36/58/2
f 36/59/3 35/60/3 37/61/3 38/62/3
f 38/62/4 37/61/4 39/63/4 40/64/4
f 40/65/5 39/66/5 34/56/5 33/55/5
f 37/67/1 35/68/1 34/69/1 39/70/1
usemtl fcBlockInfernalEnchanter_side
f 5/71/4 1/72/4 4/73/4 6/74/4
f 6/75/5 4/76/5 3/77/5 7/78/5
f 7/79/2 3/80/2 2/81/2 8/82/2
f 1/83/3 5/84/3 8/85/3 2/86/3
usemtl fcBlockInfernalEnchanter_bottom
f 5/84/6 6/75/6 7/87/6 8/88/6
usemtl fcBlockCandleWick
f 41/89/2 42/90/2 43/91/2 44/92/2
f 44/93/3 43/94/3 45/95/3 46/96/3
f 46/97/4 45/98/4 47/99/4 48/100/4
f 48/101/5 47/102/5 42/103/5 41/104/5
f 45/105/1 43/106/1 42/107/1 47/108/1
f 49/109/2 50/110/2 51/111/2 52/112/2
f 52/113/3 51/114/3 53/115/3 54/116/3
f 54/117/4 53/118/4 55/119/4 56/120/4
f 56/121/5 55/122/5 50/123/5 49/124/5
f 53/125/1 51/126/1 50/127/1 55/128/1
f 57/129/2 58/130/2 59/131/2 60/132/2
f 60/133/3 59/134/3 61/135/3 62/136/3
f 62/137/4 61/138/4 63/139/4 64/140/4
f 64/141/5 63/142/5 58/143/5 57/144/5
f 61/145/1 59/146/1 58/147/1 63/148/1
f 65/149/2 66/150/2 67/151/2 68/152/2
f 68/153/3 67/154/3 69/155/3 70/156/3
f 70/157/4 69/158/4 71/159/4 72/160/4
f 72/161/5 71/162/5 66/163/5 65/164/5
f 69/165/1 67/166/1 66/167/1 71/168/1
