o fcBlockPedestalStone
v -0.375000 0.375000 0.375000
v -0.375000 0.500000 0.375000
v -0.375000 0.375000 -0.375000
v -0.375000 0.500000 -0.375000
v 0.375000 0.375000 0.375000
v 0.375000 0.500000 0.375000
v 0.375000 0.375000 -0.375000
v 0.375000 0.500000 -0.375000
v -0.500000 -0.500000 0.500000
v -0.500000 0.250000 0.500000
v -0.500000 -0.500000 -0.500000
v -0.500000 0.250000 -0.500000
v 0.500000 -0.500000 0.500000
v 0.500000 0.250000 0.500000
v 0.500000 -0.500000 -0.500000
v 0.500000 0.250000 -0.500000
v -0.437500 0.250000 0.437500
v -0.437500 0.375000 0.437500
v -0.437500 0.250000 -0.437500
v -0.437500 0.375000 -0.437500
v 0.437500 0.250000 0.437500
v 0.437500 0.375000 0.437500
v 0.437500 0.250000 -0.437500
v 0.437500 0.375000 -0.437500
vt 0.8750 0.8750
vt 0.8750 1.0000
vt 0.1250 1.0000
vt 0.1250 0.8750
vt 0.8750 0.8750
vt 0.8750 1.0000
vt 0.1250 1.0000
vt 0.1250 0.8750
vt 0.8750 0.8750
vt 0.8750 1.0000
vt 0.1250 1.0000
vt 0.1250 0.8750
vt 0.8750 0.8750
vt 0.8750 1.0000
vt 0.1250 1.0000
vt 0.1250 0.8750
vt 0.8750 0.8750
vt 0.1250 0.8750
vt 0.1250 0.1250
vt 0.8750 0.1250
vt 1.0000 0.0000
vt 1.0000 0.7500
vt 0.0000 0.7500
vt 0.0000 -0.0000
vt 1.0000 -0.0000
vt 1.0000 0.7500
vt -0.0000 0.7500
vt -0.0000 -0.0000
vt 1.0000 -0.0000
vt 1.0000 0.7500
vt -0.0000 0.7500
vt -0.0000 0.0000
vt 1.0000 0.0000
vt 1.0000 0.7500
vt 0.0000 0.7500
vt -0.0000 0.0000
vt 1.0000 1.0000
vt 0.0000 1.0000
vt 1.0000 1.0000
vt 0.0000 1.0000
vt -0.0000 0.0000
vt 1.0000 -0.0000
vt 0.9375 0.7500
vt 0.9375 0.8750
vt 0.0625 0.8750
vt 0.0625 0.7500
vt 0.9375 0.7500
vt 0.9375 0.8750
vt 0.0625 0.8750
vt 0.0625 0.7500
vt 0.9375 0.7500
vt 0.9375 0.8750
vt 0.0625 0.8750
vt 0.0625 0.7500
vt 0.9375 0.7500
vt 0.9375 0.8750
vt 0.0625 0.8750
vt 0.0625 0.7500
vt 0.9375 0.9375
vt 0.0625 0.9375
vt 0.0625 0.0625
vt 0.9375 0.0625
vn -1.0000 0.0000 0.0000
vn 0.0000 0.0000 -1.0000
vn 1.0000 0.0000 0.0000
vn 0.0000 0.0000 1.0000
vn 0.0000 1.0000 0.0000
vn 0.0000 -1.0000 0.0000
usemtl fcBlockDecorativeStone
s off
f 1/1/1 2/2/1 4/3/1 3/4/1
f 3/5/2 4/6/2 8/7/2 7/8/2
f 7/9/3 8/10/3 6/11/3 5/12/3
f 5/13/4 6/14/4 2/15/4 1/16/4
f 8/17/5 4/18/5 2/19/5 6/20/5
f 9/21/1 10/22/1 12/23/1 11/24/1
f 11/25/2 12/26/2 16/27/2 15/28/2
f 15/29/3 16/30/3 14/31/3 13/32/3
f 13/33/4 14/34/4 10/35/4 9/36/4
f 11/24/6 15/29/6 13/37/6 9/38/6
f 16/39/5 12/40/5 10/41/5 14/42/5
f 17/43/1 18/44/1 20/45/1 19/46/1
f 19/47/2 20/48/2 24/49/2 23/50/2
f 23/51/3 24/52/3 22/53/3 21/54/3
f 21/55/4 22/56/4 18/57/4 17/58/4
f 24/59/5 20/60/5 18/61/5 22/62/5
