o fcBlockStake
v -0.125000 0.500000 0.125000
v -0.125000 0.500000 -0.125000
v 0.125000 0.500000 0.125000
v 0.125000 0.500000 -0.125000
v -0.125000 -0.125000 0.125000
v -0.125000 -0.125000 -0.125000
v 0.125000 -0.125000 0.125000
v 0.125000 -0.125000 -0.125000
vt 0.3750 0.6250
vt 0.6250 0.6250
vt 0.6250 0.0000
vt 0.3750 0.0000
vt 0.6250 0.0000
vt 0.3750 0.0000
vt 0.3750 0.6250
vt 0.6250 0.6250
vt 0.6250 0.0000
vt 0.3750 0.0000
vt 0.3750 0.6250
vt 0.6250 0.6250
vt 0.6250 0.0000
vt 0.3750 0.0000
vt 0.3750 0.6250
vt 0.6250 0.6250
vt 0.3750 0.3750
vt 0.6250 0.3750
vt 0.3750 0.3750
vt 0.6250 0.3750
vn 0.0000 0.0000 -1.0000
vn -1.0000 -0.0000 0.0000
vn 1.0000 -0.0000 0.0000
vn 0.0000 0.0000 1.0000
vn 0.0000 -1.0000 0.0000
vn 0.0000 1.0000 0.0000
usemtl fcBlockStake_side
s off
f 8/1/1 6/2/1 2/3/1 4/4/1
f 6/5/2 5/6/2 1/7/2 2/8/2
f 4/9/3 3/10/3 7/11/3 8/12/3
f 3/13/4 1/14/4 5/15/4 7/16/4
usemtl fcBlockStake_top
f 6/2/5 8/1/5 7/17/5 5/18/5
f 1/7/6 3/19/6 4/20/6 2/8/6
