o Rail_detector_slope
v -0.588388 -0.411612 -0.375000
v 0.448241 0.625018 -0.375000
v 0.500000 0.500000 -0.375000
v -0.500000 -0.500000 -0.375000
v 0.448241 0.625018 -0.250000
v -0.588388 -0.411612 -0.250000
v -0.500000 -0.500000 -0.250000
v 0.500000 0.500000 -0.250000
v -0.588388 -0.411612 0.250000
v 0.448241 0.625018 0.250000
v 0.500000 0.500000 0.250000
v -0.500000 -0.500000 0.250000
v 0.501000 0.500000 -0.250000
v 0.501000 0.625018 -0.250000
v 0.448241 0.625018 0.375000
v -0.588388 -0.411612 0.375000
v -0.500000 -0.500000 0.375000
v 0.500000 0.500000 0.375000
v 0.008233 0.096621 -0.437500
v 0.008233 0.096621 0.437500
v 0.052427 0.052427 0.437500
v 0.052427 0.052427 -0.437500
v -0.080155 0.008233 0.437500
v -0.035961 -0.035961 0.437500
v -0.080155 0.008233 -0.437500
v -0.035961 -0.035961 -0.437500
v -0.146447 -0.146447 -0.437500
v -0.146447 -0.146447 0.437500
v -0.234835 -0.234835 0.437500
v -0.234835 -0.234835 -0.437500
v -0.190641 -0.102252 0.437500
v -0.279029 -0.190641 0.437500
v -0.190641 -0.102252 -0.437500
v -0.279029 -0.190641 -0.437500
v -0.345320 -0.345320 -0.437500
v -0.345320 -0.345320 0.437500
v -0.433709 -0.433709 0.437500
v -0.433709 -0.433709 -0.437500
v -0.389515 -0.301126 0.437500
v -0.477903 -0.389515 0.437500
v -0.389515 -0.301126 -0.437500
v -0.477903 -0.389515 -0.437500
v 0.501000 0.500000 -0.375000
v 0.501000 0.625018 -0.375000
v 0.501000 0.500000 0.375000
v 0.501000 0.625018 0.375000
v 0.501000 0.625018 0.250000
v 0.501000 0.500000 0.250000
v 0.251301 0.251301 -0.437500
v 0.251301 0.251301 0.437500
v 0.162913 0.162913 0.437500
v 0.162913 0.162913 -0.437500
v 0.207107 0.295495 0.437500
v 0.118719 0.207107 0.437500
v 0.207107 0.295495 -0.437500
v 0.118719 0.207107 -0.437500
v 0.450175 0.450175 -0.437500
v 0.450175 0.450175 0.437500
v 0.361786 0.361786 0.437500
v 0.361786 0.361786 -0.437500
v 0.405981 0.494369 0.437500
v 0.317592 0.405980 0.437500
v 0.405981 0.494369 -0.437500
v 0.317592 0.405980 -0.437500
v -0.124349 -0.035961 -0.125000
v -0.146446 -0.013864 -0.125000
v -0.124349 -0.035961 0.125000
v -0.146446 -0.013864 0.125000
v 0.052427 0.140815 -0.125000
v 0.052427 0.140815 0.125000
v 0.030330 0.162912 0.125000
v 0.030330 0.162912 -0.125000
v -0.080155 0.008233 -0.187500
v -0.080155 0.008233 0.187500
v -0.035961 -0.035961 0.187500
v -0.035961 -0.035961 -0.187500
v -0.168543 -0.080155 0.187500
v -0.124349 -0.124349 0.187500
v -0.168543 -0.080155 -0.187500
v -0.124349 -0.124349 -0.187500
v 0.096621 0.185009 -0.187500
v 0.096621 0.185009 0.187500
v 0.140815 0.140815 0.187500
v 0.140815 0.140815 -0.187500
v 0.008233 0.096621 0.187500
v 0.052427 0.052427 0.187500
v 0.008233 0.096621 -0.187500
v 0.052427 0.052427 -0.187500
vn 0.000000 0.000000 -1.000000
vn 0.000000 -0.000000 1.000000
vn -0.707100 -0.707100 0.000000
vn 0.707100 -0.707100 -0.000000
vn -0.707100 0.707100 0.000000
vn 0.707100 0.707100 0.000000
vn 1.000000 0.000000 0.000000
vn 0.000000 1.000000 0.000000
usemtl Material
s off
f 1//1 2//1 3//1 4//1
f 5//2 6//2 7//2 8//2
f 6//3 1//3 4//3 7//3
f 4//4 3//4 8//4 7//4
f 6//5 5//5 2//5 1//5
f 9//1 10//1 11//1 12//1
f 5//2 8//2 13//2 14//2
f 15//2 16//2 17//2 18//2
f 16//3 9//3 12//3 17//3
f 12//4 11//4 18//4 17//4
f 16//5 15//5 10//5 9//5
f 19//6 20//6 21//6 22//6
f 20//2 23//2 24//2 21//2
f 23//3 25//3 26//3 24//3
f 25//1 19//1 22//1 26//1
f 22//4 21//4 24//4 26//4
f 25//5 23//5 20//5 19//5
f 27//4 28//4 29//4 30//4
f 31//2 32//2 29//2 28//2
f 33//6 31//6 28//6 27//6
f 34//5 32//5 31//5 33//5
f 34//1 33//1 27//1 30//1
f 32//3 34//3 30//3 29//3
f 35//4 36//4 37//4 38//4
f 39//2 40//2 37//2 36//2
f 41//6 39//6 36//6 35//6
f 42//5 40//5 39//5 41//5
f 42//1 41//1 35//1 38//1
f 40//3 42//3 38//3 37//3
f 13//7 43//7 44//7 14//7
f 2//8 5//8 14//8 44//8
f 15//2 18//2 45//2 46//2
f 10//8 15//8 46//8 47//8
f 2//1 44//1 43//1 3//1
f 11//1 10//1 47//1 48//1
f 45//7 48//7 47//7 46//7
f 49//4 50//4 51//4 52//4
f 53//2 54//2 51//2 50//2
f 55//6 53//6 50//6 49//6
f 56//5 54//5 53//5 55//5
f 56//1 55//1 49//1 52//1
f 54//3 56//3 52//3 51//3
f 57//4 58//4 59//4 60//4
f 61//2 62//2 59//2 58//2
f 63//6 61//6 58//6 57//6
f 64//5 62//5 61//5 63//5
f 64//1 63//1 57//1 60//1
f 62//3 64//3 60//3 59//3
f 69//4 70//4 67//4 65//4
f 68//3 66//3 65//3 67//3
f 66//1 72//1 69//1 65//1
f 72//6 71//6 70//6 69//6
f 66//5 68//5 71//5 72//5
f 71//2 68//2 67//2 70//2
f 73//6 74//6 75//6 76//6
f 74//2 77//2 78//2 75//2
f 77//3 79//3 80//3 78//3
f 79//1 73//1 76//1 80//1
f 76//4 75//4 78//4 80//4
f 79//5 77//5 74//5 73//5
f 81//6 82//6 83//6 84//6
f 82//2 85//2 86//2 83//2
f 85//3 87//3 88//3 86//3
f 87//1 81//1 84//1 88//1
f 84//4 83//4 86//4 88//4
f 87//5 85//5 82//5 81//5
