# Blender v2.90.0 OBJ File: 'brick_oven.blend'
# www.blender.org

o off
v 0.500000 -0.125000 -0.500000
v 0.500000 -0.500000 -0.500000
v 0.500000 -0.125000 0.500000
v 0.500000 -0.500000 0.500000
v -0.500000 -0.125000 -0.500000
v -0.500000 -0.500000 -0.500000
v -0.500000 -0.125000 0.500000
v -0.500000 -0.500000 0.500000
v 0.250000 -0.500000 -0.500000
v 0.250000 -0.125000 0.500000
v 0.250000 -0.500000 0.500000
v 0.250000 -0.125000 -0.500000
v -0.250000 -0.500000 -0.500000
v -0.250000 -0.125000 0.500000
v -0.250000 -0.500000 0.500000
v -0.250000 -0.125000 -0.500000
v -0.500000 -0.500000 -0.250000
v 0.500000 -0.125000 -0.250000
v -0.500000 -0.125000 -0.250000
v 0.500000 -0.500000 -0.250000
v 0.250000 -0.500000 -0.250000
v 0.250000 -0.125000 -0.250000
v -0.250000 -0.500000 -0.250000
v -0.250000 -0.125000 -0.250000
v -0.250000 0.250000 0.500000
v -0.500000 0.250000 0.500000
v 0.500000 0.250000 -0.250000
v 0.500000 0.250000 0.500000
v -0.500000 0.250000 -0.250000
v -0.500000 0.250000 -0.500000
v 0.250000 0.250000 -0.500000
v 0.500000 0.250000 -0.500000
v 0.250000 0.250000 0.500000
v -0.250000 0.250000 -0.500000
v 0.250000 0.250000 -0.250000
v -0.250000 0.250000 -0.250000
v -0.250000 0.500000 0.500000
v -0.500000 0.500000 0.500000
v 0.500000 0.500000 -0.250000
v 0.500000 0.500000 0.500000
v -0.500000 0.500000 -0.250000
v -0.500000 0.500000 -0.500000
v 0.250000 0.500000 -0.500000
v 0.500000 0.500000 -0.500000
v 0.250000 0.500000 0.500000
v -0.250000 0.500000 -0.500000
v 0.250000 0.500000 -0.250000
v -0.250000 0.500000 -0.250000
vt 1.000000 0.375000
vt 0.750000 0.375000
vt 0.750000 0.750000
vt 1.000000 0.750000
vt 0.750000 0.000000
vt 0.750000 0.375000
vt 1.000000 0.375000
vt 1.000000 0.000000
vt 0.750000 0.000000
vt 0.750000 0.375000
vt 0.000000 0.375000
vt 0.000000 0.000000
vt 0.750000 0.000000
vt 1.000000 0.000000
vt 0.250000 0.000000
vt 0.250000 0.375000
vt 0.000000 0.000000
vt 0.000000 0.375000
vt -0.000000 0.375000
vt -0.000000 0.750000
vt 0.750000 0.750000
vt 0.000000 0.750000
vt 0.250000 0.750000
vt -0.000000 0.000000
vt 0.000000 1.000000
vt 0.250000 1.000000
vt -0.000000 1.000000
vt 0.750000 1.000000
vt 0.750000 1.000000
vt 1.000000 1.000000
vt -0.000000 0.375000
vt 0.750000 0.375000
vt 0.750000 0.750000
vt -0.000000 0.750000
vt 0.750000 0.750000
vt 0.000000 0.750000
vt 0.250000 0.375000
vt 0.750000 0.375000
vt 0.750000 0.750000
vt 0.250000 0.750000
vt 1.000000 0.375000
vt 0.250000 0.375000
vt 0.250000 0.750000
vt 1.000000 0.750000
vt 1.000000 0.750000
vt 0.750000 1.000000
vt 0.000000 1.000000
vt 1.000000 1.000000
vt 0.250000 0.000000
vt 0.250000 0.375000
vt 1.000000 0.000000
vt 1.000000 0.375000
vt 0.750000 0.375000
vt 0.750000 0.000000
vt 1.000000 0.750000
vt 0.750000 0.750000
vt 0.250000 0.750000
vt 0.250000 1.000000
vt 1.000000 1.000000
vt 0.750000 1.000000
vt 0.750000 0.750000
vt 1.000000 0.750000
vt 0.250000 0.750000
vt 0.000000 0.750000
vt 0.750000 0.750000
vt 0.250000 0.750000
vt 0.250000 -0.000000
vt 0.750000 -0.000000
vt 0.000000 1.000000
vt 0.250000 1.000000
vt 0.750000 1.000000
vt 1.000000 1.000000
vt 0.750000 -0.000000
vt 0.250000 -0.000000
vt 0.250000 0.750000
vt 0.000000 0.750000
vt 0.000000 -0.000000
vt 0.250000 -0.000000
vt 1.000000 0.750000
vt 0.750000 0.750000
vt 0.750000 -0.000000
vt 1.000000 -0.000000
vn 0.0000 0.0000 -1.0000
vn -1.0000 0.0000 0.0000
vn 1.0000 0.0000 0.0000
vn 0.0000 0.0000 1.0000
vn 0.0000 -1.0000 0.0000
vn 0.0000 1.0000 0.0000
usemtl furnace_brick_side
s off
f 1/1/1 12/2/1 31/3/1 32/4/1
f 17/5/2 19/6/2 5/7/2 6/8/2
f 20/9/3 18/10/3 3/11/3 4/12/3
f 9/13/1 12/2/1 1/1/1 2/14/1
f 13/15/1 16/16/1 12/2/1 9/13/1
f 6/17/1 5/18/1 16/16/1 13/15/1
f 19/6/2 7/19/2 26/20/2 29/21/2
f 16/16/1 5/18/1 30/22/1 34/23/1
f 2/14/3 1/1/3 18/10/3 20/9/3
f 8/24/2 7/19/2 19/6/2 17/5/2
f 34/23/1 30/22/1 42/25/1 46/26/1
f 29/21/2 26/20/2 38/27/2 41/28/2
f 32/4/1 31/3/1 43/29/1 44/30/1
f 14/31/3 24/32/3 36/33/3 25/34/3
f 3/11/3 18/10/3 27/35/3 28/36/3
f 12/2/1 16/16/1 34/23/1 31/3/1
f 18/10/3 1/1/3 32/4/3 27/35/3
f 24/37/4 22/38/4 35/39/4 36/40/4
f 22/41/2 10/42/2 33/43/2 35/44/2
f 5/7/2 19/6/2 29/21/2 30/45/2
f 28/36/3 27/35/3 39/46/3 40/47/3
f 31/3/1 34/23/1 46/26/1 43/29/1
f 30/45/2 29/21/2 41/28/2 42/48/2
f 27/35/3 32/4/3 44/30/3 39/46/3
usemtl furnace_brick_front
f 15/49/4 14/50/4 7/19/4 8/24/4
f 4/51/4 3/52/4 10/53/4 11/54/4
f 10/53/4 3/52/4 28/55/4 33/56/4
f 11/54/4 10/53/4 14/50/4 15/49/4
f 7/19/4 14/50/4 25/57/4 26/20/4
f 26/20/4 25/57/4 37/58/4 38/27/4
f 33/56/4 28/55/4 40/59/4 45/60/4
f 45/60/4 37/58/4 25/57/4 33/56/4
usemtl furnace_brick_top
f 21/61/5 20/62/5 4/51/5 11/54/5
f 23/63/5 21/61/5 11/54/5 15/49/5
f 17/64/5 23/63/5 15/49/5 8/24/5
f 22/65/6 24/66/6 14/67/6 10/68/6
f 6/69/5 13/70/5 23/63/5 17/64/5
f 13/70/5 9/71/5 21/61/5 23/63/5
f 9/71/5 2/72/5 20/62/5 21/61/5
f 33/73/5 25/74/5 36/40/5 35/39/5
f 48/75/6 41/76/6 38/77/6 37/78/6
f 39/79/6 47/80/6 45/81/6 40/82/6
f 43/29/6 46/26/6 48/75/6 47/80/6
f 44/30/6 43/29/6 47/80/6 39/79/6
f 46/26/6 42/25/6 41/76/6 48/75/6
f 45/81/6 47/80/6 48/75/6 37/78/6
o on
v 0.500000 -0.125000 -0.500000
v 0.500000 -0.500000 -0.500000
v 0.500000 -0.125000 0.500000
v 0.500000 -0.500000 0.500000
v -0.500000 -0.125000 -0.500000
v -0.500000 -0.500000 -0.500000
v -0.500000 -0.125000 0.500000
v -0.500000 -0.500000 0.500000
v 0.250000 -0.500000 -0.500000
v 0.250000 -0.125000 0.500000
v 0.250000 -0.500000 0.500000
v 0.250000 -0.125000 -0.500000
v -0.250000 -0.500000 -0.500000
v -0.250000 -0.125000 0.500000
v -0.250000 -0.500000 0.500000
v -0.250000 -0.125000 -0.500000
v -0.500000 -0.500000 -0.250000
v 0.500000 -0.125000 -0.250000
v -0.500000 -0.125000 -0.250000
v 0.500000 -0.500000 -0.250000
v 0.250000 -0.500000 -0.250000
v 0.250000 -0.125000 -0.250000
v -0.250000 -0.500000 -0.250000
v -0.250000 -0.125000 -0.250000
v -0.250000 0.250000 0.500000
v -0.500000 0.250000 0.500000
v 0.500000 0.250000 -0.250000
v 0.500000 0.250000 0.500000
v -0.500000 0.250000 -0.250000
v -0.500000 0.250000 -0.500000
v 0.250000 0.250000 -0.500000
v 0.500000 0.250000 -0.500000
v 0.250000 0.250000 0.500000
v -0.250000 0.250000 -0.500000
v 0.250000 0.250000 -0.250000
v -0.250000 0.250000 -0.250000
v -0.250000 0.500000 0.500000
v -0.500000 0.500000 0.500000
v 0.500000 0.500000 -0.250000
v 0.500000 0.500000 0.500000
v -0.500000 0.500000 -0.250000
v -0.500000 0.500000 -0.500000
v 0.250000 0.500000 -0.500000
v 0.500000 0.500000 -0.500000
v 0.250000 0.500000 0.500000
v -0.250000 0.500000 -0.500000
v 0.250000 0.500000 -0.250000
v -0.250000 0.500000 -0.250000
vt 1.000000 0.375000
vt 0.750000 0.375000
vt 0.750000 0.750000
vt 1.000000 0.750000
vt 0.750000 0.000000
vt 0.750000 0.375000
vt 1.000000 0.375000
vt 1.000000 0.000000
vt 0.750000 0.000000
vt 0.750000 0.375000
vt 0.000000 0.375000
vt 0.000000 0.000000
vt 0.750000 0.000000
vt 1.000000 0.000000
vt 0.250000 0.000000
vt 0.250000 0.375000
vt 0.000000 0.000000
vt 0.000000 0.375000
vt -0.000000 0.375000
vt -0.000000 0.750000
vt 0.750000 0.750000
vt 0.000000 0.750000
vt 0.250000 0.750000
vt -0.000000 0.000000
vt 0.000000 1.000000
vt 0.250000 1.000000
vt -0.000000 1.000000
vt 0.750000 1.000000
vt 0.750000 1.000000
vt 1.000000 1.000000
vt -0.000000 0.375000
vt 0.750000 0.375000
vt 0.750000 0.750000
vt -0.000000 0.750000
vt 0.750000 0.750000
vt 0.000000 0.750000
vt 0.250000 0.375000
vt 0.750000 0.375000
vt 0.750000 0.750000
vt 0.250000 0.750000
vt 1.000000 0.375000
vt 0.250000 0.375000
vt 0.250000 0.750000
vt 1.000000 0.750000
vt 1.000000 0.750000
vt 0.750000 1.000000
vt 0.000000 1.000000
vt 1.000000 1.000000
vt 0.250000 0.000000
vt 0.250000 0.375000
vt 1.000000 0.000000
vt 1.000000 0.375000
vt 0.750000 0.375000
vt 0.750000 0.000000
vt 1.000000 0.750000
vt 0.750000 0.750000
vt 0.250000 0.750000
vt 0.250000 1.000000
vt 1.000000 1.000000
vt 0.750000 1.000000
vt 0.750000 0.750000
vt 1.000000 0.750000
vt 0.250000 0.750000
vt 0.000000 0.750000
vt 0.750000 0.750000
vt 0.250000 0.750000
vt 0.250000 -0.000000
vt 0.750000 -0.000000
vt 0.000000 1.000000
vt 0.250000 1.000000
vt 0.750000 1.000000
vt 1.000000 1.000000
vt 0.750000 -0.000000
vt 0.250000 -0.000000
vt 0.250000 0.750000
vt 0.000000 0.750000
vt 0.000000 -0.000000
vt 0.250000 -0.000000
vt 1.000000 0.750000
vt 0.750000 0.750000
vt 0.750000 -0.000000
vt 1.000000 -0.000000
vn 0.0000 0.0000 -1.0000
vn -1.0000 0.0000 0.0000
vn 1.0000 0.0000 0.0000
vn 0.0000 0.0000 1.0000
vn 0.0000 -1.0000 0.0000
vn 0.0000 1.0000 0.0000
usemtl furnace_brick_side
s off
f 49/83/7 60/84/7 79/85/7 80/86/7
f 65/87/8 67/88/8 53/89/8 54/90/8
f 68/91/9 66/92/9 51/93/9 52/94/9
f 57/95/7 60/84/7 49/83/7 50/96/7
f 61/97/7 64/98/7 60/84/7 57/95/7
f 54/99/7 53/100/7 64/98/7 61/97/7
f 67/88/8 55/101/8 74/102/8 77/103/8
f 64/98/7 53/100/7 78/104/7 82/105/7
f 50/96/9 49/83/9 66/92/9 68/91/9
f 56/106/8 55/101/8 67/88/8 65/87/8
f 82/105/7 78/104/7 90/107/7 94/108/7
f 77/103/8 74/102/8 86/109/8 89/110/8
f 80/86/7 79/85/7 91/111/7 92/112/7
f 62/113/9 72/114/9 84/115/9 73/116/9
f 51/93/9 66/92/9 75/117/9 76/118/9
f 60/84/7 64/98/7 82/105/7 79/85/7
f 66/92/9 49/83/9 80/86/9 75/117/9
f 72/119/10 70/120/10 83/121/10 84/122/10
f 70/123/8 58/124/8 81/125/8 83/126/8
f 53/89/8 67/88/8 77/103/8 78/127/8
f 76/118/9 75/117/9 87/128/9 88/129/9
f 79/85/7 82/105/7 94/108/7 91/111/7
f 78/127/8 77/103/8 89/110/8 90/130/8
f 75/117/9 80/86/9 92/112/9 87/128/9
usemtl furnace_brick_front_lit
f 63/131/10 62/132/10 55/101/10 56/106/10
f 52/133/10 51/134/10 58/135/10 59/136/10
f 58/135/10 51/134/10 76/137/10 81/138/10
f 59/136/10 58/135/10 62/132/10 63/131/10
f 55/101/10 62/132/10 73/139/10 74/102/10
f 74/102/10 73/139/10 85/140/10 86/109/10
f 81/138/10 76/137/10 88/141/10 93/142/10
f 93/142/10 85/140/10 73/139/10 81/138/10
usemtl furnace_brick_top
f 69/143/11 68/144/11 52/133/11 59/136/11
f 71/145/11 69/143/11 59/136/11 63/131/11
f 65/146/11 71/145/11 63/131/11 56/106/11
f 70/147/12 72/148/12 62/149/12 58/150/12
f 54/151/11 61/152/11 71/145/11 65/146/11
f 61/152/11 57/153/11 69/143/11 71/145/11
f 57/153/11 50/154/11 68/144/11 69/143/11
f 81/155/11 73/156/11 84/122/11 83/121/11
f 96/157/12 89/158/12 86/159/12 85/160/12
f 87/161/12 95/162/12 93/163/12 88/164/12
f 91/111/12 94/108/12 96/157/12 95/162/12
f 92/112/12 91/111/12 95/162/12 87/161/12
f 94/108/12 90/107/12 89/158/12 96/157/12
f 93/163/12 95/162/12 96/157/12 85/160/12
