# Blender v2.90.0 OBJ File: ''
# www.blender.org

o cake
v 0.437500 -0.500000 -0.437500
v 0.437500 0.000000 -0.437499
v 0.437499 -0.000000 0.437500
v 0.437500 -0.500000 0.437500
v -0.437500 -0.000000 0.437500
v -0.437500 -0.500000 0.437500
v -0.437500 0.000000 -0.437500
v -0.437500 -0.500000 -0.437500
vt 0.937500 0.000000
vt 0.937500 0.500000
vt 0.062500 0.500000
vt 0.062500 0.000000
vt 0.937500 0.000000
vt 0.937500 0.500000
vt 0.062500 0.500000
vt 0.062500 0.000000
vt 0.937500 0.000000
vt 0.937500 0.500000
vt 0.062500 0.500000
vt 0.062500 0.000000
vt 0.062500 0.500000
vt 0.062500 0.000000
vt 0.937500 0.000000
vt 0.937500 0.500000
vt 0.062500 0.062500
vt 0.937500 0.062500
vt 0.937500 0.937500
vt 0.062500 0.937500
vt 0.062500 0.062500
vt 0.937500 0.062500
vt 0.937500 0.937500
vt 0.062500 0.937500
vn 1.0000 0.0000 0.0000
vn 0.0000 -0.0000 1.0000
vn -1.0000 -0.0000 0.0000
vn 0.0000 0.0000 -1.0000
vn -0.0000 1.0000 0.0000
vn 0.0000 -1.0000 -0.0000
usemtl cake_side
s 1
f 1/1/1 2/2/1 3/3/1 4/4/1
f 4/5/2 3/6/2 5/7/2 6/8/2
f 6/9/3 5/10/3 7/11/3 8/12/3
f 2/13/4 1/14/4 8/15/4 7/16/4
usemtl cake_top
f 2/17/5 7/18/5 5/19/5 3/20/5
usemtl cake_bottom
f 1/21/6 4/22/6 6/23/6 8/24/6
o cake_1
v 0.437500 -0.500000 -0.437500
v 0.437500 0.000000 -0.437499
v 0.437499 -0.000000 0.437500
v 0.437500 -0.500000 0.437500
v -0.312500 -0.000000 0.437500
v -0.312500 -0.500000 0.437500
v -0.312500 -0.500000 -0.437500
v -0.312500 0.000000 -0.437500
vt 0.937500 0.000000
vt 0.937500 0.500000
vt 0.062500 0.500000
vt 0.062500 0.000000
vt 0.937500 0.000000
vt 0.937500 0.500000
vt 0.187500 0.500000
vt 0.187500 0.000000
vt 0.187500 0.500000
vt 0.187500 0.000000
vt 0.937500 0.000000
vt 0.937500 0.500000
vt 0.062500 0.062500
vt 0.937500 0.062500
vt 0.937500 0.937500
vt 0.062500 0.937500
vt 0.062500 0.062500
vt 0.937500 0.062500
vt 0.937500 0.937500
vt 0.062500 0.937500
vt 0.937500 0.000000
vt 0.937500 0.500000
vt 0.062500 0.500000
vt 0.062500 0.000000
vn 1.0000 0.0000 0.0000
vn 0.0000 -0.0000 1.0000
vn 0.0000 0.0000 -1.0000
vn -0.0000 1.0000 0.0000
vn 0.0000 -1.0000 -0.0000
vn -1.0000 0.0000 0.0000
usemtl cake_side
s 1
f 9/25/7 10/26/7 11/27/7 12/28/7
f 12/29/8 11/30/8 13/31/8 14/32/8
f 10/33/9 9/34/9 15/35/9 16/36/9
usemtl cake_top
f 10/37/10 16/38/10 13/39/10 11/40/10
usemtl cake_bottom
f 9/41/11 12/42/11 14/43/11 15/44/11
usemtl cake_inside
f 14/45/12 13/46/12 16/47/12 15/48/12
o cake_2
v 0.437500 -0.500000 -0.437500
v 0.437500 0.000000 -0.437499
v 0.437499 -0.000000 0.437500
v 0.437500 -0.500000 0.437500
v -0.187500 -0.000000 0.437500
v -0.187500 -0.500000 0.437500
v -0.187500 -0.500000 -0.437500
v -0.187500 0.000000 -0.437500
vt 0.937500 0.000000
vt 0.937500 0.500000
vt 0.062500 0.500000
vt 0.062500 0.000000
vt 0.937500 0.000000
vt 0.937500 0.500000
vt 0.312500 0.500000
vt 0.312500 0.000000
vt 0.312500 0.500000
vt 0.312500 0.000000
vt 0.937500 0.000000
vt 0.937500 0.500000
vt 0.062500 0.062500
vt 0.937500 0.062500
vt 0.937500 0.937500
vt 0.062500 0.937500
vt 0.062500 0.062500
vt 0.937500 0.062500
vt 0.937500 0.937500
vt 0.062500 0.937500
vt 0.937500 0.000000
vt 0.937500 0.500000
vt 0.062500 0.500000
vt 0.062500 0.000000
vn 1.0000 0.0000 0.0000
vn 0.0000 -0.0000 1.0000
vn 0.0000 0.0000 -1.0000
vn -0.0000 1.0000 0.0000
vn 0.0000 -1.0000 -0.0000
vn -1.0000 -0.0000 0.0000
usemtl cake_side
s 1
f 17/49/13 18/50/13 19/51/13 20/52/13
f 20/53/14 19/54/14 21/55/14 22/56/14
f 18/57/15 17/58/15 23/59/15 24/60/15
usemtl cake_top
f 18/61/16 24/62/16 21/63/16 19/64/16
usemtl cake_bottom
f 17/65/17 20/66/17 22/67/17 23/68/17
usemtl cake_inside
f 22/69/18 21/70/18 24/71/18 23/72/18
o cake_3
v 0.437500 -0.500000 -0.437500
v 0.437500 0.000000 -0.437499
v 0.437499 -0.000000 0.437500
v 0.437500 -0.500000 0.437500
v -0.062500 -0.000000 0.437500
v -0.062500 -0.500000 0.437500
v -0.062500 -0.500000 -0.437500
v -0.062500 0.000000 -0.437500
vt 0.937500 0.000000
vt 0.937500 0.500000
vt 0.062500 0.500000
vt 0.062500 0.000000
vt 0.937500 0.000000
vt 0.937500 0.500000
vt 0.437500 0.500000
vt 0.437500 0.000000
vt 0.437500 0.500000
vt 0.437500 0.000000
vt 0.937500 0.000000
vt 0.937500 0.500000
vt 0.062500 0.062500
vt 0.937500 0.062500
vt 0.937500 0.937500
vt 0.062500 0.937500
vt 0.062500 0.062500
vt 0.937500 0.062500
vt 0.937500 0.937500
vt 0.062500 0.937500
vt 0.937500 0.000000
vt 0.937500 0.500000
vt 0.062500 0.500000
vt 0.062500 0.000000
vn 1.0000 0.0000 0.0000
vn 0.0000 -0.0000 1.0000
vn 0.0000 0.0000 -1.0000
vn -0.0000 1.0000 0.0000
vn 0.0000 -1.0000 -0.0000
vn -1.0000 0.0000 0.0000
usemtl cake_side
s 1
f 25/73/19 26/74/19 27/75/19 28/76/19
f 28/77/20 27/78/20 29/79/20 30/80/20
f 26/81/21 25/82/21 31/83/21 32/84/21
usemtl cake_top
f 26/85/22 32/86/22 29/87/22 27/88/22
usemtl cake_bottom
f 25/89/23 28/90/23 30/91/23 31/92/23
usemtl cake_inside
f 30/93/24 29/94/24 32/95/24 31/96/24
o cake_4
v 0.437500 -0.500000 -0.437500
v 0.437500 0.000000 -0.437499
v 0.437499 -0.000000 0.437500
v 0.437500 -0.500000 0.437500
v 0.062500 -0.000000 0.437500
v 0.062500 -0.500000 0.437500
v 0.062500 -0.500000 -0.437500
v 0.062500 0.000000 -0.437500
vt 0.937500 0.000000
vt 0.937500 0.500000
vt 0.062500 0.500000
vt 0.062500 0.000000
vt 0.937500 0.000000
vt 0.937500 0.500000
vt 0.562500 0.500000
vt 0.562500 0.000000
vt 0.562500 0.500000
vt 0.562500 0.000000
vt 0.937500 0.000000
vt 0.937500 0.500000
vt 0.062500 0.062500
vt 0.937500 0.062500
vt 0.937500 0.937500
vt 0.062500 0.937500
vt 0.062500 0.062500
vt 0.937500 0.062500
vt 0.937500 0.937500
vt 0.062500 0.937500
vt 0.937500 0.000000
vt 0.937500 0.500000
vt 0.062500 0.500000
vt 0.062500 0.000000
vn 1.0000 0.0000 0.0000
vn 0.0000 -0.0000 1.0000
vn 0.0000 0.0000 -1.0000
vn -0.0000 1.0000 0.0000
vn 0.0000 -1.0000 -0.0000
vn -1.0000 -0.0000 0.0000
usemtl cake_side
s 1
f 33/97/25 34/98/25 35/99/25 36/100/25
f 36/101/26 35/102/26 37/103/26 38/104/26
f 34/105/27 33/106/27 39/107/27 40/108/27
usemtl cake_top
f 34/109/28 40/110/28 37/111/28 35/112/28
usemtl cake_bottom
f 33/113/29 36/114/29 38/115/29 39/116/29
usemtl cake_inside
f 38/117/30 37/118/30 40/119/30 39/120/30
o cake_5
v 0.437500 -0.500000 -0.437500
v 0.437500 0.000000 -0.437499
v 0.437499 -0.000000 0.437500
v 0.437500 -0.500000 0.437500
v 0.187500 -0.000000 0.437500
v 0.187500 -0.500000 0.437500
v 0.187500 -0.500000 -0.437500
v 0.187500 0.000000 -0.437500
vt 0.937500 0.000000
vt 0.937500 0.500000
vt 0.062500 0.500000
vt 0.062500 0.000000
vt 0.937500 0.000000
vt 0.937500 0.500000
vt 0.687500 0.500000
vt 0.687500 0.000000
vt 0.687500 0.500000
vt 0.687500 0.000000
vt 0.937500 0.000000
vt 0.937500 0.500000
vt 0.062500 0.062500
vt 0.937500 0.062500
vt 0.937500 0.937500
vt 0.062500 0.937500
vt 0.062500 0.062500
vt 0.937500 0.062500
vt 0.937500 0.937500
vt 0.062500 0.937500
vt 0.937500 0.000000
vt 0.937500 0.500000
vt 0.062500 0.500000
vt 0.062500 0.000000
vn 1.0000 0.0000 0.0000
vn 0.0000 -0.0000 1.0000
vn 0.0000 0.0000 -1.0000
vn -0.0000 1.0000 0.0000
vn 0.0000 -1.0000 -0.0000
vn -1.0000 0.0000 0.0000
usemtl cake_side
s 1
f 41/121/31 42/122/31 43/123/31 44/124/31
f 44/125/32 43/126/32 45/127/32 46/128/32
f 42/129/33 41/130/33 47/131/33 48/132/33
usemtl cake_top
f 42/133/34 48/134/34 45/135/34 43/136/34
usemtl cake_bottom
f 41/137/35 44/138/35 46/139/35 47/140/35
usemtl cake_inside
f 46/141/36 45/142/36 48/143/36 47/144/36
o cake_6
v 0.437500 -0.500000 -0.437500
v 0.437500 0.000000 -0.437499
v 0.437499 -0.000000 0.437500
v 0.437500 -0.500000 0.437500
v 0.312500 -0.000000 0.437500
v 0.312500 -0.500000 0.437500
v 0.312500 -0.500000 -0.437500
v 0.312500 0.000000 -0.437500
vt 0.937500 0.000000
vt 0.937500 0.500000
vt 0.062500 0.500000
vt 0.062500 0.000000
vt 0.937500 0.000000
vt 0.937500 0.500000
vt 0.812500 0.500000
vt 0.812500 0.000000
vt 0.812500 0.500000
vt 0.812500 0.000000
vt 0.937500 0.000000
vt 0.937500 0.500000
vt 0.062500 0.062500
vt 0.937500 0.062500
vt 0.937500 0.937500
vt 0.062500 0.937500
vt 0.062500 0.062500
vt 0.937500 0.062500
vt 0.937500 0.937500
vt 0.062500 0.937500
vt 0.937500 0.000000
vt 0.937500 0.500000
vt 0.062500 0.500000
vt 0.062500 0.000000
vn 1.0000 0.0000 0.0000
vn 0.0000 -0.0000 1.0000
vn 0.0000 0.0000 -1.0000
vn -0.0000 1.0000 0.0000
vn 0.0000 -1.0000 -0.0000
vn -1.0000 -0.0000 0.0000
usemtl cake_side
s 1
f 49/145/37 50/146/37 51/147/37 52/148/37
f 52/149/38 51/150/38 53/151/38 54/152/38
f 50/153/39 49/154/39 55/155/39 56/156/39
usemtl cake_top
f 50/157/40 56/158/40 53/159/40 51/160/40
usemtl cake_bottom
f 49/161/41 52/162/41 54/163/41 55/164/41
usemtl cake_inside
f 54/165/42 53/166/42 56/167/42 55/168/42
o cake_7
v 0.437500 -0.500000 -0.437500
v 0.437500 0.000000 -0.437499
v 0.437499 -0.000000 0.437500
v 0.437500 -0.500000 0.437500
v 0.437400 -0.000000 0.437500
v 0.437400 -0.500000 0.437500
v 0.437400 -0.500000 -0.437500
v 0.437400 0.000000 -0.437500
vt 0.937500 0.000000
vt 0.937500 0.500000
vt 0.062500 0.500000
vt 0.062500 0.000000
vt 0.937500 0.000000
vt 0.937500 0.500000
vt 0.906250 0.500000
vt 0.906250 0.000000
vt 0.906250 0.500000
vt 0.906250 0.000000
vt 0.937500 0.000000
vt 0.937500 0.500000
vt 0.062500 0.062500
vt 0.937500 0.062500
vt 0.937500 0.937500
vt 0.062500 0.937500
vt 0.062500 0.062500
vt 0.937500 0.062500
vt 0.937500 0.937500
vt 0.062500 0.937500
vt 0.937500 0.000000
vt 0.937500 0.500000
vt 0.062500 0.500000
vt 0.062500 0.000000
vn 1.0000 0.0000 0.0000
vn 0.0000 -0.0000 1.0000
vn 0.0054 0.0000 -1.0000
vn -0.0000 1.0000 0.0000
vn 0.0000 -1.0000 -0.0000
vn -1.0000 0.0000 0.0000
usemtl cake_side
s 1
f 57/169/43 58/170/43 59/171/43 60/172/43
f 60/173/44 59/174/44 61/175/44 62/176/44
f 58/177/45 57/178/45 63/179/45 64/180/45
usemtl cake_top
f 58/181/46 64/182/46 61/183/46 59/184/46
usemtl cake_bottom
f 57/185/47 60/186/47 62/187/47 63/188/47
usemtl cake_inside
f 62/189/48 61/190/48 64/191/48 63/192/48
