# Blender v2.90.0 OBJ File: 'companion_cube.blend'
# www.blender.org

o cube
v 0.500000 0.500000 -0.500000
v 0.500000 -0.500000 -0.500000
v 0.500000 0.500000 0.500000
v 0.500000 -0.500000 0.500000
v -0.500000 0.500000 -0.500000
v -0.500000 -0.500000 -0.500000
v -0.500000 0.500000 0.500000
v -0.500000 -0.500000 0.500000
vt 1.000000 1.000000
vt 0.000000 1.000000
vt 0.000000 0.000000
vt 1.000000 0.000000
vt 1.000000 0.000000
vt 1.000000 1.000000
vt 0.000000 1.000000
vt 0.000000 0.000000
vt 1.000000 1.000000
vt 1.000000 0.000000
vt 0.000000 1.000000
vt 1.000000 1.000000
vt 1.000000 0.000000
vt 0.000000 1.000000
vt 0.000000 0.000000
vt 0.000000 0.000000
vn 0.0000 1.0000 0.0000
vn 0.0000 0.0000 1.0000
vn -1.0000 0.0000 0.0000
vn 0.0000 -1.0000 0.0000
vn 1.0000 0.0000 0.0000
vn 0.0000 0.0000 -1.0000
usemtl companion_cube
s off
f 1/1/1 5/2/1 7/3/1 3/4/1
f 4/5/2 3/6/2 7/7/2 8/8/2
f 8/8/3 7/7/3 5/9/3 6/10/3
f 6/11/4 2/12/4 4/5/4 8/8/4
f 2/13/5 1/1/5 3/14/5 4/15/5
usemtl companion_cube_front
f 6/16/6 5/2/6 1/1/6 2/13/6
o slab_top
v 0.500000 0.500000 -0.500000
v 0.500000 0.000000 -0.500000
v 0.500000 0.500000 0.500000
v 0.500000 0.000000 0.500000
v -0.500000 0.500000 -0.500000
v -0.500000 0.000000 -0.500000
v -0.500000 0.500000 0.500000
v -0.500000 0.000000 0.500000
vt 1.000000 1.000000
vt 0.000000 1.000000
vt 0.000000 0.000000
vt 1.000000 0.000000
vt 1.000000 0.500000
vt 1.000000 1.000000
vt 0.000000 1.000000
vt 0.000000 0.500000
vt 1.000000 1.000000
vt 1.000000 0.500000
vt 1.000000 0.500000
vt 0.000000 1.000000
vt 0.000000 0.500000
vt 0.000000 0.500000
vt 0.000000 1.000000
vt 1.000000 1.000000
vt 1.000000 0.000000
vt 0.000000 0.000000
vn 0.0000 1.0000 0.0000
vn 0.0000 0.0000 1.0000
vn -1.0000 0.0000 0.0000
vn 1.0000 0.0000 0.0000
vn 0.0000 0.0000 -1.0000
vn 0.0000 -1.0000 0.0000
usemtl companion_cube
s off
f 9/17/7 13/18/7 15/19/7 11/20/7
f 12/21/8 11/22/8 15/23/8 16/24/8
f 16/24/9 15/23/9 13/25/9 14/26/9
f 10/27/10 9/17/10 11/28/10 12/29/10
f 14/30/11 13/18/11 9/17/11 10/27/11
usemtl companion_cube_guts
f 14/31/12 10/32/12 12/33/12 16/34/12
o slab_bottom
v 0.500000 0.000000 -0.500000
v 0.500000 -0.500000 -0.500000
v 0.500000 0.000000 0.500000
v 0.500000 -0.500000 0.500000
v -0.500000 0.000000 -0.500000
v -0.500000 -0.500000 -0.500000
v -0.500000 0.000000 0.500000
v -0.500000 -0.500000 0.500000
vt 1.000000 0.000000
vt 1.000000 0.500000
vt 0.000000 0.500000
vt 0.000000 0.000000
vt 1.000000 0.500000
vt 1.000000 0.000000
vt 0.000000 1.000000
vt 1.000000 1.000000
vt 1.000000 0.000000
vt 1.000000 0.500000
vt 0.000000 0.500000
vt 0.000000 0.000000
vt 0.000000 0.000000
vt 0.000000 0.500000
vt 1.000000 1.000000
vt 0.000000 1.000000
vt 0.000000 0.000000
vt 1.000000 0.000000
vn 0.0000 0.0000 1.0000
vn -1.0000 0.0000 0.0000
vn 0.0000 -1.0000 0.0000
vn 1.0000 0.0000 0.0000
vn 0.0000 0.0000 -1.0000
vn 0.0000 1.0000 0.0000
usemtl companion_cube
s off
f 20/35/13 19/36/13 23/37/13 24/38/13
f 24/38/14 23/37/14 21/39/14 22/40/14
f 22/41/15 18/42/15 20/35/15 24/38/15
f 18/43/16 17/44/16 19/45/16 20/46/16
f 22/47/17 21/48/17 17/44/17 18/43/17
usemtl companion_cube_guts
f 17/49/18 21/50/18 23/51/18 19/52/18
