# Blender v2.90.0 OBJ File: ''
# www.blender.org

o base_with_eye
v 0.250000 0.500000 -0.250000
v -0.250000 0.500000 -0.250000
v -0.250000 0.500000 0.250000
v 0.250000 0.500000 0.250000
v 0.250000 0.312500 -0.250000
v 0.250000 0.312500 0.250000
v -0.250000 0.312500 0.250000
v -0.250000 0.312500 -0.250000
v 0.500000 -0.500000 -0.500000
v 0.500000 0.312500 -0.499999
v 0.499999 0.312500 0.500000
v 0.500000 -0.500000 0.500000
v -0.500000 0.312500 0.500000
v -0.500000 -0.500000 0.500000
v -0.500000 0.312500 -0.500000
v -0.500000 -0.500000 -0.500000
vt 0.750000 0.750000
vt 0.250000 0.750000
vt 0.250000 0.250000
vt 0.750000 0.250000
vt 0.750000 0.812500
vt 0.750000 1.000000
vt 0.250000 1.000000
vt 0.250000 0.812500
vt 0.750000 0.812500
vt 0.750000 1.000000
vt 0.250000 1.000000
vt 0.250000 0.812500
vt 0.750000 0.812500
vt 0.750000 1.000000
vt 0.250000 1.000000
vt 0.250000 0.812500
vt 0.250000 1.000000
vt 0.250000 0.812500
vt 0.750000 0.812500
vt 0.750000 1.000000
vt 1.000000 0.000000
vt 1.000000 0.812500
vt 0.000000 0.812500
vt 0.000000 0.000000
vt 1.000000 0.000000
vt 1.000000 0.812500
vt 0.000000 0.812500
vt 0.000000 0.000000
vt 1.000000 0.000000
vt 1.000000 0.812500
vt 0.000000 0.812500
vt 0.000000 0.000000
vt 0.000000 0.812500
vt 0.000000 0.000000
vt 1.000000 0.000000
vt 1.000000 0.812500
vt 0.000000 0.000000
vt 1.000000 0.000000
vt 1.000000 1.000000
vt 0.000000 1.000000
vt 1.000000 1.000000
vt 0.000000 1.000000
vn 0.0000 1.0000 0.0000
vn 1.0000 0.0000 0.0000
vn 0.0000 -0.0000 1.0000
vn -1.0000 -0.0000 0.0000
vn 0.0000 0.0000 -1.0000
vn 0.0000 -1.0000 -0.0000
usemtl eye_of_ender
s off
f 1/1/1 2/2/1 3/3/1 4/4/1
f 5/5/2 1/6/2 4/7/2 6/8/2
f 6/9/3 4/10/3 3/11/3 7/12/3
f 7/13/4 3/14/4 2/15/4 8/16/4
f 1/17/5 5/18/5 8/19/5 2/20/5
usemtl endportal_frame_side
f 9/21/2 10/22/2 11/23/2 12/24/2
f 12/25/3 11/26/3 13/27/3 14/28/3
f 14/29/4 13/30/4 15/31/4 16/32/4
f 10/33/5 9/34/5 16/35/5 15/36/5
usemtl endportal_frame_top
f 10/37/1 15/38/1 13/39/1 11/40/1
usemtl endstone
f 9/34/6 12/25/6 14/41/6 16/42/6
o base
v 0.500000 -0.500000 -0.500000
v 0.500000 0.312500 -0.499999
v 0.499999 0.312500 0.500000
v 0.500000 -0.500000 0.500000
v -0.500000 0.312500 0.500000
v -0.500000 -0.500000 0.500000
v -0.500000 0.312500 -0.500000
v -0.500000 -0.500000 -0.500000
vt 1.000000 0.000000
vt 1.000000 0.812500
vt 0.000000 0.812500
vt 0.000000 0.000000
vt 1.000000 0.000000
vt 1.000000 0.812500
vt 0.000000 0.812500
vt 0.000000 0.000000
vt 1.000000 0.000000
vt 1.000000 0.812500
vt 0.000000 0.812500
vt 0.000000 0.000000
vt 0.000000 0.812500
vt 0.000000 0.000000
vt 1.000000 0.000000
vt 1.000000 0.812500
vt 0.000000 0.000000
vt 1.000000 0.000000
vt 1.000000 1.000000
vt 0.000000 1.000000
vt 1.000000 1.000000
vt 0.000000 1.000000
vn 1.0000 0.0000 0.0000
vn 0.0000 -0.0000 1.0000
vn -1.0000 0.0000 0.0000
vn 0.0000 0.0000 -1.0000
vn -0.0000 1.0000 0.0000
vn 0.0000 -1.0000 -0.0000
usemtl endportal_frame_side
s off
f 17/43/7 18/44/7 19/45/7 20/46/7
f 20/47/8 19/48/8 21/49/8 22/50/8
f 22/51/9 21/52/9 23/53/9 24/54/9
f 18/55/10 17/56/10 24/57/10 23/58/10
usemtl endportal_frame_top
f 18/59/11 23/60/11 21/61/11 19/62/11
usemtl endstone
f 17/56/12 20/47/12 22/63/12 24/64/12
