# Blender v2.90.0 OBJ File: 'hopper.blend'
# www.blender.org

o hopper
v 0.187500 -0.250000 -0.187500
v 0.187500 -0.500000 -0.187500
v 0.187500 -0.250000 0.187500
v 0.187500 -0.500000 0.187500
v -0.187500 -0.250000 -0.187500
v -0.187500 -0.500000 -0.187500
v -0.187500 -0.250000 0.187500
v -0.187500 -0.500000 0.187500
v 0.500000 0.500000 0.375000
v 0.500000 -0.250000 0.375000
v 0.500000 0.500000 0.500000
v 0.500000 -0.250000 0.500000
v -0.500000 0.500000 0.375000
v -0.500000 -0.250000 0.375000
v -0.500000 0.500000 0.500000
v -0.500000 -0.250000 0.500000
v 0.375000 0.500000 0.500000
v 0.375000 -0.250000 0.500000
v 0.375000 0.500000 0.375000
v -0.375000 0.500000 0.500000
v -0.375000 -0.250000 0.500000
v -0.375000 0.500000 0.375000
v -0.500000 -0.250000 -0.375000
v 0.500000 0.500000 -0.375000
v 0.500000 -0.250000 -0.375000
v -0.500000 0.500000 -0.375000
v 0.375000 0.500000 -0.375000
v -0.375000 0.500000 -0.375000
v -0.375000 -0.250000 -0.500000
v -0.500000 -0.250000 -0.500000
v 0.500000 0.500000 -0.500000
v 0.500000 -0.250000 -0.500000
v -0.500000 0.500000 -0.500000
v 0.375000 0.500000 -0.500000
v 0.375000 -0.250000 -0.500000
v -0.375000 0.500000 -0.500000
v 0.375000 -0.187500 0.375000
v -0.375000 -0.187500 0.375000
v 0.375000 -0.187500 -0.375000
v -0.375000 -0.187500 -0.375000
v -0.375000 -0.250000 0.375000
v 0.375000 -0.250000 0.375000
v -0.375000 -0.250000 -0.375000
v 0.375000 -0.250000 -0.375000
vt 0.875000 1.000000
vt 0.125000 1.000000
vt 0.125000 0.312500
vt 0.875000 0.312500
vt 0.125000 1.000000
vt 0.875000 1.000000
vt 0.875000 0.312500
vt 0.125000 0.312500
vt 0.125000 1.000000
vt 0.125000 0.312500
vt 0.125000 0.250000
vt 0.125000 1.000000
vt 0.000000 1.000000
vt 0.000000 0.250000
vt 0.125000 1.000000
vt 0.125000 0.250000
vt 0.125000 0.250000
vt 0.125000 1.000000
vt 0.000000 1.000000
vt 0.000000 0.250000
vt 1.000000 0.250000
vt 1.000000 1.000000
vt 0.875000 1.000000
vt 0.875000 0.250000
vt 0.875000 0.250000
vt 0.875000 1.000000
vt 0.875000 1.000000
vt 0.875000 0.250000
vt 0.875000 0.250000
vt 0.875000 1.000000
vt 1.000000 1.000000
vt 1.000000 0.250000
vt 0.000000 0.250000
vt 0.000000 1.000000
vt 0.125000 1.000000
vt 0.125000 0.250000
vt 1.000000 1.000000
vt 1.000000 0.250000
vt 0.125000 0.125000
vt 0.000000 0.125000
vt 0.000000 0.000000
vt 0.125000 0.000000
vt 1.000000 0.125000
vt 0.875000 0.125000
vt 0.875000 0.000000
vt 1.000000 0.000000
vt 0.125000 0.875000
vt 0.000000 0.875000
vt 1.000000 0.875000
vt 0.875000 0.875000
vt 0.875000 1.000000
vt 0.875000 0.312500
vt 0.312500 0.687500
vt 0.687500 0.687500
vt 0.687500 0.312500
vt 0.312500 0.312500
vt 0.687500 0.312500
vt 0.687500 0.687500
vt 0.312500 0.687500
vt 0.312500 0.312500
vt 0.687500 0.000000
vt 0.687500 0.250000
vt 0.312500 0.250000
vt 0.312500 0.000000
vt 0.687500 0.250000
vt 0.687500 0.000000
vt 0.687500 0.000000
vt 0.687500 0.250000
vt 0.312500 0.250000
vt 0.312500 0.000000
vt 0.312500 0.000000
vt 0.312500 0.250000
vt 0.125000 0.125000
vt 0.875000 0.125000
vt 0.875000 0.875000
vt 0.125000 0.875000
vt 0.125000 0.875000
vt 0.125000 1.000000
vt 0.875000 1.000000
vt 0.875000 0.875000
vt 0.125000 0.000000
vt 0.125000 0.125000
vt 0.875000 0.125000
vt 0.875000 0.000000
vt 1.000000 1.000000
vt 1.000000 0.875000
vt 1.000000 0.125000
vt 1.000000 0.000000
vt 0.000000 0.875000
vt 0.000000 1.000000
vt 0.000000 0.125000
vt 0.000000 0.000000
vn 1.0000 0.0000 0.0000
vn -1.0000 0.0000 0.0000
vn 0.0000 0.0000 1.0000
vn 0.0000 0.0000 -1.0000
vn 0.0000 1.0000 0.0000
vn 0.0000 -1.0000 0.0000
usemtl hopper_interior_side
s off
f 28/1/1 22/2/1 38/3/1 40/4/1
f 19/5/2 27/6/2 39/7/2 37/8/2
f 27/6/3 28/9/3 40/10/3 39/7/3
usemtl hopper_bin_side
f 21/11/3 20/12/3 15/13/3 16/14/3
f 16/14/2 15/13/2 13/15/2 14/16/2
f 10/17/1 9/18/1 11/19/1 12/20/1
f 12/21/3 11/22/3 17/23/3 18/24/3
f 9/18/1 10/17/1 25/25/1 24/26/1
f 18/24/3 17/23/3 20/12/3 21/11/3
f 14/16/2 13/15/2 26/27/2 23/28/2
f 35/29/4 34/30/4 31/31/4 32/32/4
f 30/33/4 33/34/4 36/35/4 29/36/4
f 24/26/1 25/25/1 32/32/1 31/31/1
f 23/28/2 26/27/2 33/37/2 30/38/2
f 35/29/4 29/36/4 36/35/4 34/30/4
usemtl hopper_bin_top
f 22/39/5 13/40/5 15/41/5 20/42/5
f 9/43/5 19/44/5 17/45/5 11/46/5
f 19/44/5 22/39/5 20/42/5 17/45/5
f 13/40/5 22/39/5 28/47/5 26/48/5
f 19/44/5 9/43/5 24/49/5 27/50/5
f 27/50/5 24/49/5 31/31/5 34/30/5
f 26/48/5 28/47/5 36/35/5 33/34/5
f 36/35/5 28/47/5 27/50/5 34/30/5
f 22/2/4 19/51/4 37/52/4 38/3/4
usemtl hopper_nozzle_bottom
f 6/53/6 2/54/6 4/55/6 8/56/6
f 3/57/5 1/58/5 5/59/5 7/60/5
usemtl hopper_nozzle_side
f 4/61/3 3/62/3 7/63/3 8/64/3
f 8/64/2 7/63/2 5/65/2 6/66/2
f 2/67/1 1/68/1 3/69/1 4/70/1
f 6/71/4 5/72/4 1/68/4 2/67/4
usemtl hopper_bin_bottom
f 38/73/5 37/74/5 39/75/5 40/76/5
f 43/77/6 29/78/6 35/79/6 44/80/6
f 21/81/6 41/82/6 42/83/6 18/84/6
f 41/82/6 43/77/6 44/80/6 42/83/6
f 35/79/6 32/85/6 25/86/6 44/80/6
f 25/86/6 10/87/6 42/83/6 44/80/6
f 18/84/6 42/83/6 10/87/6 12/88/6
f 29/78/6 43/77/6 23/89/6 30/90/6
f 23/89/6 43/77/6 41/82/6 14/91/6
f 14/91/6 41/82/6 21/81/6 16/92/6
