# Blender v2.90.0 OBJ File: 'ladder_burning.blend'
# www.blender.org
# by Sockthing (@Socklessthing)

o ladder_burning
v -0.500000 -0.500000 -0.437500
v -0.500000 0.500000 -0.437500
v 0.500000 -0.500000 -0.437500
v 0.500000 0.500000 -0.437500
v -0.500000 -0.491372 -0.504472
v -0.500000 0.753872 -0.395528
v 0.500000 -0.491372 -0.504472
v 0.500000 0.753872 -0.395528
vt 1.000000 0.000000
vt 1.000000 1.000000
vt 0.000000 1.000000
vt 0.000000 0.000000
vt 1.000000 0.000000
vt 1.000000 1.000000
vt 0.000000 1.000000
vt 0.000000 0.000000
vn 0.0000 0.0000 1.0000
vn 0.0000 -0.0872 0.9962
usemtl ladder
s off
f 3/1/1 4/2/1 2/3/1 1/4/1
usemtl fire
f 7/5/2 8/6/2 6/7/2 5/8/2
