# Blender v2.90.0 OBJ File: 'millstone.blend'
# www.blender.org

o empty
v 0.500000 0.062500 -0.500000
v 0.500000 -0.500000 -0.500000
v 0.500000 0.062500 0.500000
v 0.500000 -0.500000 0.500000
v -0.500000 0.062500 -0.500000
v -0.500000 -0.500000 -0.500000
v -0.500000 0.062500 0.500000
v -0.500000 -0.500000 0.500000
v 0.437500 0.187500 -0.437500
v 0.437500 0.062500 -0.437500
v 0.437500 0.187500 0.437500
v 0.437500 0.062500 0.437500
v -0.437500 0.187500 -0.437500
v -0.437500 0.062500 -0.437500
v -0.437500 0.187500 0.437500
v -0.437500 0.062500 0.437500
v 0.500000 0.437500 -0.500000
v 0.500000 0.187500 -0.500000
v 0.500000 0.437500 0.500000
v 0.500000 0.187500 0.500000
v -0.500000 0.437500 -0.500000
v -0.500000 0.187500 -0.500000
v -0.500000 0.437500 0.500000
v -0.500000 0.187500 0.500000
v 0.437500 0.500000 -0.437500
v 0.437500 0.437500 -0.437500
v 0.437500 0.500000 0.437500
v 0.437500 0.437500 0.437500
v -0.437500 0.500000 -0.437500
v -0.437500 0.437500 -0.437500
v -0.437500 0.500000 0.437500
v -0.437500 0.437500 0.437500
vt 1.000000 0.000000
vt 1.000000 0.562500
vt 0.000000 0.562500
vt 0.000000 0.000000
vt 1.000000 0.562500
vt 1.000000 0.000000
vt 1.000000 0.000000
vt 1.000000 0.562500
vt 0.000000 0.562500
vt 0.000000 0.000000
vt 0.000000 0.000000
vt 0.000000 0.562500
vt 0.937500 0.937500
vt 0.062500 0.937500
vt 0.062500 0.062500
vt 0.937500 0.062500
vt 0.937500 0.562500
vt 0.937500 0.687500
vt 0.062500 0.687500
vt 0.062500 0.562500
vt 0.937500 0.687500
vt 0.937500 0.562500
vt 0.062500 0.937500
vt 0.937500 0.937500
vt 0.937500 0.062500
vt 0.062500 0.062500
vt 0.937500 0.562500
vt 0.937500 0.687500
vt 0.062500 0.687500
vt 0.062500 0.562500
vt 0.062500 0.562500
vt 0.062500 0.687500
vt 1.000000 0.687500
vt 1.000000 0.937500
vt 0.000000 0.937500
vt 0.000000 0.687500
vt 1.000000 0.937500
vt 1.000000 0.687500
vt 1.000000 0.687500
vt 1.000000 0.937500
vt 0.000000 0.937500
vt 0.000000 0.687500
vt 0.000000 0.687500
vt 0.000000 0.937500
vt 0.937500 0.937500
vt 0.937500 1.000000
vt 0.062500 1.000000
vt 0.062500 0.937500
vt 0.937500 1.000000
vt 0.937500 0.937500
vt 0.062500 0.937500
vt 0.937500 0.937500
vt 0.937500 0.062500
vt 0.062500 0.062500
vt 0.937500 1.000000
vt 0.062500 1.000000
vt 0.062500 0.937500
vt 0.062500 1.000000
vt 1.000000 1.000000
vt 0.000000 1.000000
vt 0.000000 0.000000
vt 1.000000 0.000000
vt 1.000000 1.000000
vt 0.000000 1.000000
vt 0.000000 0.000000
vt 1.000000 0.000000
vt 0.937500 0.937500
vt 0.062500 0.937500
vt 0.062500 0.062500
vt 0.937500 0.062500
vt 0.000000 1.000000
vt 1.000000 1.000000
vt 0.000000 1.000000
vt 1.000000 1.000000
vt 1.000000 0.000000
vt 0.000000 0.000000
vn 0.0000 0.0000 1.0000
vn -1.0000 0.0000 0.0000
vn 1.0000 0.0000 0.0000
vn 0.0000 0.0000 -1.0000
vn 0.0000 1.0000 0.0000
vn 0.0000 -1.0000 0.0000
usemtl millstone_side
s off
f 4/1/1 3/2/1 7/3/1 8/4/1
f 8/4/2 7/3/2 5/5/2 6/6/2
f 2/7/3 1/8/3 3/9/3 4/10/3
f 6/11/4 5/12/4 1/8/4 2/7/4
f 9/13/5 13/14/5 15/15/5 11/16/5
f 12/17/1 11/18/1 15/19/1 16/20/1
f 16/20/2 15/19/2 13/21/2 14/22/2
f 14/23/6 10/24/6 12/25/6 16/26/6
f 10/27/3 9/28/3 11/29/3 12/30/3
f 14/31/4 13/32/4 9/28/4 10/27/4
f 20/33/1 19/34/1 23/35/1 24/36/1
f 24/36/2 23/35/2 21/37/2 22/38/2
f 18/39/3 17/40/3 19/41/3 20/42/3
f 22/43/4 21/44/4 17/40/4 18/39/4
f 28/45/1 27/46/1 31/47/1 32/48/1
f 32/48/2 31/47/2 29/49/2 30/50/2
f 30/51/6 26/52/6 28/53/6 32/54/6
f 26/52/3 25/55/3 27/56/3 28/57/3
f 30/51/4 29/58/4 25/55/4 26/52/4
usemtl millstone_top
f 1/59/5 5/60/5 7/61/5 3/62/5
f 17/63/5 21/64/5 23/65/5 19/66/5
f 25/67/5 29/68/5 31/69/5 27/70/5
usemtl millstone_bottom
f 6/71/6 2/72/6 4/1/6 8/4/6
f 22/73/6 18/74/6 20/75/6 24/76/6
o full
v 0.500000 0.062500 -0.500000
v 0.500000 -0.500000 -0.500000
v 0.500000 0.062500 0.500000
v 0.500000 -0.500000 0.500000
v -0.500000 0.062500 -0.500000
v -0.500000 -0.500000 -0.500000
v -0.500000 0.062500 0.500000
v -0.500000 -0.500000 0.500000
v 0.437500 0.187500 -0.437500
v 0.437500 0.062500 -0.437500
v 0.437500 0.187500 0.437500
v 0.437500 0.062500 0.437500
v -0.437500 0.187500 -0.437500
v -0.437500 0.062500 -0.437500
v -0.437500 0.187500 0.437500
v -0.437500 0.062500 0.437500
v 0.500000 0.437500 -0.500000
v 0.500000 0.187500 -0.500000
v 0.500000 0.437500 0.500000
v 0.500000 0.187500 0.500000
v -0.500000 0.437500 -0.500000
v -0.500000 0.187500 -0.500000
v -0.500000 0.437500 0.500000
v -0.500000 0.187500 0.500000
v 0.437500 0.500000 -0.437500
v 0.437500 0.437500 -0.437500
v 0.437500 0.500000 0.437500
v 0.437500 0.437500 0.437500
v -0.437500 0.500000 -0.437500
v -0.437500 0.437500 -0.437500
v -0.437500 0.500000 0.437500
v -0.437500 0.437500 0.437500
vt 1.000000 1.000000
vt 0.000000 1.000000
vt 0.000000 0.000000
vt 1.000000 0.000000
vt 0.937500 0.937500
vt 0.062500 0.937500
vt 0.062500 0.062500
vt 0.937500 0.062500
vt 0.062500 0.937500
vt 0.937500 0.937500
vt 0.937500 0.062500
vt 0.062500 0.062500
vt 1.000000 1.000000
vt 0.000000 1.000000
vt 0.000000 0.000000
vt 1.000000 0.000000
vt 0.937500 0.937500
vt 0.062500 0.937500
vt 0.062500 0.062500
vt 0.937500 0.062500
vt 0.062500 0.937500
vt 0.937500 0.937500
vt 0.937500 0.062500
vt 0.062500 0.062500
vt 0.000000 1.000000
vt 1.000000 1.000000
vt 1.000000 0.000000
vt 0.000000 0.000000
vt 0.000000 1.000000
vt 1.000000 1.000000
vt 1.000000 0.000000
vt 0.000000 0.000000
vt 1.000000 0.562500
vt 0.000000 0.562500
vt 1.000000 0.562500
vt 1.000000 0.000000
vt 1.000000 0.000000
vt 1.000000 0.562500
vt 0.000000 0.562500
vt 0.000000 0.000000
vt 0.000000 0.000000
vt 0.000000 0.562500
vt 0.937500 0.562500
vt 0.937500 0.687500
vt 0.062500 0.687500
vt 0.062500 0.562500
vt 0.937500 0.687500
vt 0.937500 0.562500
vt 0.937500 0.562500
vt 0.937500 0.687500
vt 0.062500 0.687500
vt 0.062500 0.562500
vt 0.062500 0.562500
vt 0.062500 0.687500
vt 1.000000 0.687500
vt 1.000000 0.937500
vt 0.000000 0.937500
vt 0.000000 0.687500
vt 1.000000 0.937500
vt 1.000000 0.687500
vt 1.000000 0.687500
vt 1.000000 0.937500
vt 0.000000 0.937500
vt 0.000000 0.687500
vt 0.000000 0.687500
vt 0.000000 0.937500
vt 0.937500 0.937500
vt 0.937500 1.000000
vt 0.062500 1.000000
vt 0.062500 0.937500
vt 0.937500 1.000000
vt 0.937500 0.937500
vt 0.937500 1.000000
vt 0.062500 1.000000
vt 0.062500 0.937500
vt 0.062500 1.000000
vn 0.0000 1.0000 0.0000
vn 0.0000 -1.0000 0.0000
vn 0.0000 0.0000 1.0000
vn -1.0000 0.0000 0.0000
vn 1.0000 0.0000 0.0000
vn 0.0000 0.0000 -1.0000
usemtl millstone_top
s off
f 33/77/7 37/78/7 39/79/7 35/80/7
f 41/81/7 45/82/7 47/83/7 43/84/7
f 46/85/8 42/86/8 44/87/8 48/88/8
f 49/89/7 53/90/7 55/91/7 51/92/7
f 57/93/7 61/94/7 63/95/7 59/96/7
f 62/97/8 58/98/8 60/99/8 64/100/8
usemtl millstone_bottom
f 38/101/8 34/102/8 36/103/8 40/104/8
f 54/105/8 50/106/8 52/107/8 56/108/8
usemtl millstone_side_full
f 36/103/9 35/109/9 39/110/9 40/104/9
f 40/104/10 39/110/10 37/111/10 38/112/10
f 34/113/11 33/114/11 35/115/11 36/116/11
f 38/117/12 37/118/12 33/114/12 34/113/12
f 44/119/9 43/120/9 47/121/9 48/122/9
f 48/122/10 47/121/10 45/123/10 46/124/10
f 42/125/11 41/126/11 43/127/11 44/128/11
f 46/129/12 45/130/12 41/126/12 42/125/12
f 52/131/9 51/132/9 55/133/9 56/134/9
f 56/134/10 55/133/10 53/135/10 54/136/10
f 50/137/11 49/138/11 51/139/11 52/140/11
f 54/141/12 53/142/12 49/138/12 50/137/12
f 60/143/9 59/144/9 63/145/9 64/146/9
f 64/146/10 63/145/10 61/147/10 62/148/10
f 58/98/11 57/149/11 59/150/11 60/151/11
f 62/97/12 61/152/12 57/149/12 58/98/12
