# Blender v2.90.0 OBJ File: 'saw.blend'
# www.blender.org

o saw
v -0.500000 -0.500000 -0.500000
v -0.500000 -0.500000 0.500000
v 0.500000 -0.500000 -0.500000
v 0.500000 -0.500000 0.500000
v 0.500000 0.250000 -0.500000
v -0.500000 0.250000 -0.500000
v -0.500000 0.250000 0.500000
v 0.500000 0.250000 0.500000
v -0.312500 0.500000 -0.006250
v -0.312500 0.250000 -0.006250
v 0.312500 0.250000 -0.006250
v 0.312500 0.500000 -0.006250
v -0.312500 0.500000 0.006250
v -0.312500 0.250000 0.006250
v 0.312500 0.250000 0.006250
v 0.312500 0.500000 0.006250
vt 0.000000 1.000000
vt 1.000000 1.000000
vt 1.000000 0.000000
vt 0.000000 0.000000
vt 1.000000 0.750000
vt 0.000000 0.750000
vt 1.000000 -0.000000
vt 0.000000 -0.000000
vt 0.000000 0.750000
vt 1.000000 0.750000
vt 0.000000 -0.000000
vt 0.000000 0.750000
vt 1.000000 -0.000000
vt 1.000000 0.750000
vt 0.000000 1.000000
vt 0.000000 0.000000
vt 1.000000 0.000000
vt 1.000000 1.000000
vt 0.187500 0.750000
vt 0.812500 0.750000
vt 0.812500 1.000000
vt 0.187500 1.000000
vt 0.811639 0.750000
vt 0.799139 0.750000
vt 0.799139 1.000000
vt 0.811639 1.000000
vt 0.812500 0.506250
vt 0.812500 0.493750
vt 0.187500 0.493750
vt 0.187500 0.506250
vt 0.187500 0.506250
vt 0.187500 0.493750
vt 0.812500 0.493750
vt 0.812500 0.506250
vt 0.187500 0.750000
vt 0.187500 1.000000
vt 0.812500 1.000000
vt 0.812500 0.750000
vt 0.200861 1.000000
vt 0.188361 1.000000
vt 0.188361 0.750000
vt 0.200861 0.750000
vn 0.0000 -1.0000 0.0000
vn -0.0000 0.0000 1.0000
vn 0.0000 0.0000 -1.0000
vn 1.0000 0.0000 0.0000
vn -1.0000 0.0000 -0.0000
vn 0.0000 1.0000 -0.0000
usemtl saw
s off
f 1/1/1 3/2/1 4/3/1 2/4/1
f 2/4/2 4/3/2 8/5/2 7/6/2
f 3/7/3 1/8/3 6/9/3 5/10/3
f 4/11/4 3/7/4 5/10/4 8/12/4
f 1/13/5 2/4/5 7/6/5 6/14/5
usemtl saw_front
f 6/15/6 7/16/6 8/17/6 5/18/6
usemtl saw_blade_off
f 10/19/2 11/20/2 12/21/2 9/22/2
f 11/23/5 15/24/5 16/25/5 12/26/5
f 12/27/1 16/28/1 13/29/1 9/30/1
f 10/31/6 14/32/6 15/33/6 11/34/6
f 14/35/3 13/36/3 16/37/3 15/38/3
f 9/39/4 13/40/4 14/41/4 10/42/4
