# Blender v2.90.0 OBJ File: 'stake.blend'
# www.blender.org

o stake
v -0.125000 -0.500000 0.125000
v -0.125000 0.125000 0.125000
v -0.125000 -0.500000 -0.125000
v -0.125000 0.125000 -0.125000
v 0.125000 -0.500000 0.125000
v 0.125000 0.125000 0.125000
v 0.125000 -0.500000 -0.125000
v 0.125000 0.125000 -0.125000
vt 0.375000 0.000000
vt 0.375000 0.625000
vt 0.625000 0.625000
vt 0.625000 0.000000
vt 0.375000 0.000000
vt 0.375000 0.625000
vt 0.625000 0.625000
vt 0.625000 0.000000
vt 0.375000 0.625000
vt 0.375000 0.000000
vt 0.625000 0.000000
vt 0.625000 0.625000
vt 0.375000 0.625000
vt 0.625000 0.625000
vt 0.625000 0.375000
vt 0.375000 0.375000
vt 0.375000 0.375000
vt 0.625000 0.375000
vn -1.0000 0.0000 0.0000
vn 0.0000 0.0000 -1.0000
vn 1.0000 0.0000 0.0000
vn 0.0000 0.0000 1.0000
vn 0.0000 -1.0000 0.0000
vn 0.0000 1.0000 0.0000
usemtl stake_side
s off
f 1/1/1 2/2/1 4/3/1 3/4/1
f 3/5/2 4/6/2 8/7/2 7/8/2
f 7/8/3 8/7/3 6/9/3 5/10/3
f 5/11/4 6/12/4 2/2/4 1/1/4
usemtl stake_top
f 3/13/5 7/14/5 5/15/5 1/16/5
f 8/7/6 4/6/6 2/17/6 6/18/6
o stake_down
v 0.125000 0.500000 0.125000
v 0.125000 -0.125000 0.125000
v 0.125000 0.500000 -0.125000
v 0.125000 -0.125000 -0.125000
v -0.125000 0.500000 0.125000
v -0.125000 -0.125000 0.125000
v -0.125000 0.500000 -0.125000
v -0.125000 -0.125000 -0.125000
vt 0.375000 0.000000
vt 0.375000 0.625000
vt 0.625000 0.625000
vt 0.625000 0.000000
vt 0.375000 0.000000
vt 0.375000 0.625000
vt 0.625000 0.625000
vt 0.625000 0.000000
vt 0.375000 0.625000
vt 0.375000 0.000000
vt 0.625000 0.000000
vt 0.625000 0.625000
vt 0.375000 0.625000
vt 0.625000 0.625000
vt 0.625000 0.375000
vt 0.375000 0.375000
vt 0.375000 0.375000
vt 0.625000 0.375000
vn 1.0000 -0.0000 -0.0000
vn 0.0000 0.0000 -1.0000
vn -1.0000 0.0000 0.0000
vn 0.0000 -0.0000 1.0000
vn 0.0000 1.0000 0.0000
vn -0.0000 -1.0000 -0.0000
usemtl stake_side
s off
f 9/19/7 10/20/7 12/21/7 11/22/7
f 11/23/8 12/24/8 16/25/8 15/26/8
f 15/26/9 16/25/9 14/27/9 13/28/9
f 13/29/10 14/30/10 10/20/10 9/19/10
usemtl stake_top
f 11/31/11 15/32/11 13/33/11 9/34/11
f 16/25/12 12/24/12 10/35/12 14/36/12
