# Blender v2.90.0 OBJ File: 'stump_charred.blend'
# www.blender.org
# by Sockthing (@Socklessthing)

o 1_lip
v -0.437500 -0.500000 0.437500
v -0.437500 -0.312500 0.437500
v -0.437500 -0.500000 -0.437500
v -0.437500 -0.312500 -0.437500
v 0.437500 -0.500000 0.437500
v 0.437500 -0.312500 0.437500
v 0.437500 -0.500000 -0.437500
v 0.437500 -0.312500 -0.437500
v -0.375000 -0.312500 0.375000
v -0.375000 0.500000 0.375000
v -0.375000 -0.312500 -0.375000
v -0.375000 0.500000 -0.375000
v 0.375000 -0.312500 0.375000
v 0.375000 0.500000 0.375000
v 0.375000 -0.312500 -0.375000
v 0.375000 0.500000 -0.375000
vt 0.062500 0.000000
vt 0.062500 0.187500
vt 0.937500 0.187500
vt 0.937500 0.000000
vt 0.062500 0.000000
vt 0.062500 0.187500
vt 0.937500 0.187500
vt 0.937500 0.000000
vt 0.062500 0.187500
vt 0.062500 0.000000
vt 0.937500 0.000000
vt 0.937500 0.187500
vt 0.062500 0.937500
vt 0.937500 0.937500
vt 0.937500 0.062500
vt 0.062500 0.062500
vt 0.937500 0.937500
vt 0.062500 0.937500
vt 0.062500 0.062500
vt 0.937500 0.062500
vt 0.125000 0.187500
vt 0.125000 1.000000
vt 0.875000 1.000000
vt 0.875000 0.187500
vt 0.125000 0.187500
vt 0.125000 1.000000
vt 0.875000 1.000000
vt 0.875000 0.187500
vt 0.125000 1.000000
vt 0.125000 0.187500
vt 0.875000 0.187500
vt 0.875000 1.000000
vt 0.125000 0.875000
vt 0.875000 0.875000
vt 0.875000 0.125000
vt 0.125000 0.125000
vt 0.875000 0.875000
vt 0.125000 0.875000
vt 0.125000 0.125000
vt 0.875000 0.125000
vn -1.0000 0.0000 0.0000
vn 0.0000 0.0000 -1.0000
vn 1.0000 0.0000 0.0000
vn 0.0000 0.0000 1.0000
vn 0.0000 -1.0000 0.0000
vn 0.0000 1.0000 0.0000
usemtl stump_charred
s off
f 1/1/1 2/2/1 4/3/1 3/4/1
f 3/5/2 4/6/2 8/7/2 7/8/2
f 7/8/3 8/7/3 6/9/3 5/10/3
f 5/11/4 6/12/4 2/2/4 1/1/4
f 3/13/5 7/14/5 5/15/5 1/16/5
f 8/17/6 4/18/6 2/19/6 6/20/6
f 9/21/1 10/22/1 12/23/1 11/24/1
f 11/25/2 12/26/2 16/27/2 15/28/2
f 15/28/3 16/27/3 14/29/3 13/30/3
f 13/31/4 14/32/4 10/22/4 9/21/4
f 11/33/5 15/34/5 13/35/5 9/36/5
f 16/37/6 12/38/6 10/39/6 14/40/6
o 2_lip
v -0.437500 -0.500000 0.437500
v -0.437500 -0.312500 0.437500
v -0.437500 -0.500000 -0.437500
v -0.437500 -0.312500 -0.437500
v 0.437500 -0.500000 0.437500
v 0.437500 -0.312500 0.437500
v 0.437500 -0.500000 -0.437500
v 0.437500 -0.312500 -0.437500
v -0.375000 -0.312500 0.375000
v -0.375000 -0.187500 0.375000
v -0.375000 -0.312500 -0.375000
v -0.375000 -0.187500 -0.375000
v 0.375000 -0.312500 0.375000
v 0.375000 -0.187500 0.375000
v 0.375000 -0.312500 -0.375000
v 0.375000 -0.187500 -0.375000
v -0.312500 -0.187500 0.312500
v -0.312500 0.500000 0.312500
v -0.312500 -0.187500 -0.312500
v -0.312500 0.500000 -0.312500
v 0.312500 -0.187500 0.312500
v 0.312500 0.500000 0.312500
v 0.312500 -0.187500 -0.312500
v 0.312500 0.500000 -0.312500
vt 0.062500 -0.000000
vt 0.062500 0.187500
vt 0.937500 0.187500
vt 0.937500 -0.000000
vt 0.062500 -0.000000
vt 0.062500 0.187500
vt 0.937500 0.187500
vt 0.937500 -0.000000
vt 0.062500 0.187500
vt 0.062500 -0.000000
vt 0.937500 -0.000000
vt 0.937500 0.187500
vt 0.062500 0.937500
vt 0.937500 0.937500
vt 0.937500 0.062500
vt 0.062500 0.062500
vt 0.937500 0.937500
vt 0.062500 0.937500
vt 0.062500 0.062500
vt 0.937500 0.062500
vt 0.125000 0.187500
vt 0.125000 0.312500
vt 0.875000 0.312500
vt 0.875000 0.187500
vt 0.125000 0.187500
vt 0.125000 0.312500
vt 0.875000 0.312500
vt 0.875000 0.187500
vt 0.125000 0.312500
vt 0.125000 0.187500
vt 0.875000 0.187500
vt 0.875000 0.312500
vt 0.125000 0.875000
vt 0.875000 0.875000
vt 0.875000 0.125000
vt 0.125000 0.125000
vt 0.875000 0.875000
vt 0.125000 0.875000
vt 0.125000 0.125000
vt 0.875000 0.125000
vt 0.187500 0.312500
vt 0.187500 1.000000
vt 0.812500 1.000000
vt 0.812500 0.312500
vt 0.187500 0.312500
vt 0.187500 1.000000
vt 0.812500 1.000000
vt 0.812500 0.312500
vt 0.187500 1.000000
vt 0.187500 0.312500
vt 0.812500 0.312500
vt 0.812500 1.000000
vt 0.187500 0.812500
vt 0.812500 0.812500
vt 0.812500 0.187500
vt 0.187500 0.187500
vt 0.812500 0.812500
vt 0.187500 0.812500
vt 0.187500 0.187500
vt 0.812500 0.187500
vn -1.0000 0.0000 0.0000
vn 0.0000 0.0000 -1.0000
vn 1.0000 0.0000 0.0000
vn 0.0000 0.0000 1.0000
vn 0.0000 -1.0000 0.0000
vn 0.0000 1.0000 0.0000
usemtl stump_charred
s off
f 17/41/7 18/42/7 20/43/7 19/44/7
f 19/45/8 20/46/8 24/47/8 23/48/8
f 23/48/9 24/47/9 22/49/9 21/50/9
f 21/51/10 22/52/10 18/42/10 17/41/10
f 19/53/11 23/54/11 21/55/11 17/56/11
f 24/57/12 20/58/12 18/59/12 22/60/12
f 25/61/7 26/62/7 28/63/7 27/64/7
f 27/65/8 28/66/8 32/67/8 31/68/8
f 31/68/9 32/67/9 30/69/9 29/70/9
f 29/71/10 30/72/10 26/62/10 25/61/10
f 27/73/11 31/74/11 29/75/11 25/76/11
f 32/77/12 28/78/12 26/79/12 30/80/12
f 33/81/7 34/82/7 36/83/7 35/84/7
f 35/85/8 36/86/8 40/87/8 39/88/8
f 39/88/9 40/87/9 38/89/9 37/90/9
f 37/91/10 38/92/10 34/82/10 33/81/10
f 35/93/11 39/94/11 37/95/11 33/96/11
f 40/97/12 36/98/12 34/99/12 38/100/12
o 3_lip
v -0.437500 -0.500000 0.437500
v -0.437500 -0.312500 0.437500
v -0.437500 -0.500000 -0.437500
v -0.437500 -0.312500 -0.437500
v 0.437500 -0.500000 0.437500
v 0.437500 -0.312500 0.437500
v 0.437500 -0.500000 -0.437500
v 0.437500 -0.312500 -0.437500
v -0.375000 -0.312500 0.375000
v -0.375000 -0.187500 0.375000
v -0.375000 -0.312500 -0.375000
v -0.375000 -0.187500 -0.375000
v 0.375000 -0.312500 0.375000
v 0.375000 -0.187500 0.375000
v 0.375000 -0.312500 -0.375000
v 0.375000 -0.187500 -0.375000
v -0.312500 -0.187500 0.312500
v -0.312500 -0.062500 0.312500
v -0.312500 -0.187500 -0.312500
v -0.312500 -0.062500 -0.312500
v 0.312500 -0.187500 0.312500
v 0.312500 -0.062500 0.312500
v 0.312500 -0.187500 -0.312500
v 0.312500 -0.062500 -0.312500
v -0.250000 -0.062500 0.250000
v -0.250000 0.500000 0.250000
v -0.250000 -0.062500 -0.250000
v -0.250000 0.500000 -0.250000
v 0.250000 -0.062500 0.250000
v 0.250000 0.500000 0.250000
v 0.250000 -0.062500 -0.250000
v 0.250000 0.500000 -0.250000
vt 0.062500 0.000000
vt 0.062500 0.187500
vt 0.937500 0.187500
vt 0.937500 0.000000
vt 0.062500 0.000000
vt 0.062500 0.187500
vt 0.937500 0.187500
vt 0.937500 0.000000
vt 0.062500 0.187500
vt 0.062500 0.000000
vt 0.937500 0.000000
vt 0.937500 0.187500
vt 0.062500 0.937500
vt 0.937500 0.937500
vt 0.937500 0.062500
vt 0.062500 0.062500
vt 0.937500 0.937500
vt 0.062500 0.937500
vt 0.062500 0.062500
vt 0.937500 0.062500
vt 0.125000 0.187500
vt 0.125000 0.312500
vt 0.875000 0.312500
vt 0.875000 0.187500
vt 0.125000 0.187500
vt 0.125000 0.312500
vt 0.875000 0.312500
vt 0.875000 0.187500
vt 0.125000 0.312500
vt 0.125000 0.187500
vt 0.875000 0.187500
vt 0.875000 0.312500
vt 0.125000 0.875000
vt 0.875000 0.875000
vt 0.875000 0.125000
vt 0.125000 0.125000
vt 0.875000 0.875000
vt 0.125000 0.875000
vt 0.125000 0.125000
vt 0.875000 0.125000
vt 0.187500 0.312500
vt 0.187500 0.437500
vt 0.812500 0.437500
vt 0.812500 0.312500
vt 0.187500 0.312500
vt 0.187500 0.437500
vt 0.812500 0.437500
vt 0.812500 0.312500
vt 0.187500 0.437500
vt 0.187500 0.312500
vt 0.812500 0.312500
vt 0.812500 0.437500
vt 0.187500 0.812500
vt 0.812500 0.812500
vt 0.812500 0.187500
vt 0.187500 0.187500
vt 0.812500 0.812500
vt 0.187500 0.812500
vt 0.187500 0.187500
vt 0.812500 0.187500
vt 0.250000 0.437500
vt 0.250000 1.000000
vt 0.750000 1.000000
vt 0.750000 0.437500
vt 0.250000 0.437500
vt 0.250000 1.000000
vt 0.750000 1.000000
vt 0.750000 0.437500
vt 0.250000 1.000000
vt 0.250000 0.437500
vt 0.750000 0.437500
vt 0.750000 1.000000
vt 0.250000 0.750000
vt 0.750000 0.750000
vt 0.750000 0.250000
vt 0.250000 0.250000
vt 0.750000 0.750000
vt 0.250000 0.750000
vt 0.250000 0.250000
vt 0.750000 0.250000
vn -1.0000 0.0000 0.0000
vn 0.0000 0.0000 -1.0000
vn 1.0000 0.0000 0.0000
vn 0.0000 0.0000 1.0000
vn 0.0000 -1.0000 0.0000
vn 0.0000 1.0000 0.0000
usemtl stump_charred
s off
f 41/101/13 42/102/13 44/103/13 43/104/13
f 43/105/14 44/106/14 48/107/14 47/108/14
f 47/108/15 48/107/15 46/109/15 45/110/15
f 45/111/16 46/112/16 42/102/16 41/101/16
f 43/113/17 47/114/17 45/115/17 41/116/17
f 48/117/18 44/118/18 42/119/18 46/120/18
f 49/121/13 50/122/13 52/123/13 51/124/13
f 51/125/14 52/126/14 56/127/14 55/128/14
f 55/128/15 56/127/15 54/129/15 53/130/15
f 53/131/16 54/132/16 50/122/16 49/121/16
f 51/133/17 55/134/17 53/135/17 49/136/17
f 56/137/18 52/138/18 50/139/18 54/140/18
f 57/141/13 58/142/13 60/143/13 59/144/13
f 59/145/14 60/146/14 64/147/14 63/148/14
f 63/148/15 64/147/15 62/149/15 61/150/15
f 61/151/16 62/152/16 58/142/16 57/141/16
f 59/153/17 63/154/17 61/155/17 57/156/17
f 64/157/18 60/158/18 58/159/18 62/160/18
f 65/161/13 66/162/13 68/163/13 67/164/13
f 67/165/14 68/166/14 72/167/14 71/168/14
f 71/168/15 72/167/15 70/169/15 69/170/15
f 69/171/16 70/172/16 66/162/16 65/161/16
f 67/173/17 71/174/17 69/175/17 65/176/17
f 72/177/18 68/178/18 66/179/18 70/180/18
o 0_lip
v -0.437500 -0.500000 0.437500
v -0.437500 0.500000 0.437500
v -0.437500 -0.500000 -0.437500
v -0.437500 0.500000 -0.437500
v 0.437500 -0.500000 0.437500
v 0.437500 0.500000 0.437500
v 0.437500 -0.500000 -0.437500
v 0.437500 0.500000 -0.437500
vt 0.062500 0.000000
vt 0.062500 1.000000
vt 0.937500 1.000000
vt 0.937500 0.000000
vt 0.062500 0.000000
vt 0.062500 1.000000
vt 0.937500 1.000000
vt 0.937500 0.000000
vt 0.062500 1.000000
vt 0.062500 0.000000
vt 0.937500 0.000000
vt 0.937500 1.000000
vt 0.062500 0.937500
vt 0.937500 0.937500
vt 0.937500 0.062500
vt 0.062500 0.062500
vt 0.937500 0.937500
vt 0.062500 0.937500
vt 0.062500 0.062500
vt 0.937500 0.062500
vn -1.0000 0.0000 0.0000
vn 0.0000 0.0000 -1.0000
vn 1.0000 0.0000 0.0000
vn 0.0000 0.0000 1.0000
vn 0.0000 -1.0000 0.0000
vn 0.0000 1.0000 0.0000
usemtl stump_charred
s off
f 73/181/19 74/182/19 76/183/19 75/184/19
f 75/185/20 76/186/20 80/187/20 79/188/20
f 79/188/21 80/187/21 78/189/21 77/190/21
f 77/191/22 78/192/22 74/182/22 73/181/22
f 75/193/23 79/194/23 77/195/23 73/196/23
f 80/197/24 76/198/24 74/199/24 78/200/24
