# Blender v2.90.0 OBJ File: 'vessel.blend'
# www.blender.org

o vessel
v -0.500000 -0.375000 0.500000
v -0.500000 0.375000 0.500000
v -0.500000 -0.375000 -0.500000
v -0.500000 0.375000 -0.500000
v 0.500000 -0.375000 0.500000
v 0.500000 0.375000 0.500000
v 0.500000 -0.375000 -0.500000
v 0.500000 0.375000 -0.500000
v -0.437500 -0.500000 0.437500
v -0.437500 0.500000 0.437500
v -0.437500 -0.500000 -0.437500
v -0.437500 0.500000 -0.437500
v 0.437500 -0.500000 0.437500
v 0.437500 0.500000 0.437500
v 0.437500 -0.500000 -0.437500
v 0.437500 0.500000 -0.437500
v -0.312500 -0.375000 0.312500
v -0.312500 0.500000 0.312500
v -0.312500 -0.375000 -0.312500
v -0.312500 0.500000 -0.312500
v 0.312500 -0.375000 0.312500
v 0.312500 0.500000 0.312500
v 0.312500 -0.375000 -0.312500
v 0.312500 0.500000 -0.312500
vt 0.000000 0.125000
vt 0.000000 0.875000
vt 1.000000 0.875000
vt 1.000000 0.125000
vt 0.000000 0.125000
vt 0.000000 0.875000
vt 1.000000 0.875000
vt 1.000000 0.125000
vt 0.000000 0.875000
vt 0.000000 0.125000
vt 1.000000 0.125000
vt 1.000000 0.875000
vt 0.062500 0.000000
vt 0.062500 1.000000
vt 0.937500 1.000000
vt 0.937500 0.000000
vt 0.062500 0.000000
vt 0.062500 1.000000
vt 0.937500 1.000000
vt 0.937500 0.000000
vt 0.062500 1.000000
vt 0.062500 0.000000
vt 0.937500 0.000000
vt 0.937500 1.000000
vt 0.000000 1.000000
vt 1.000000 1.000000
vt 1.000000 0.000000
vt 0.000000 0.000000
vt 0.062500 0.937500
vt 0.937500 0.937500
vt 0.937500 0.062500
vt 0.062500 0.062500
vt 0.187500 0.000000
vt 0.187500 1.000000
vt 0.812500 1.000000
vt 0.812500 0.000000
vt 0.187500 0.000000
vt 0.187500 1.000000
vt 0.812500 1.000000
vt 0.812500 0.000000
vt 0.187500 1.000000
vt 0.187500 0.000000
vt 0.812500 0.000000
vt 0.812500 1.000000
vt 1.000000 1.000000
vt 0.000000 1.000000
vt 0.000000 0.000000
vt 1.000000 0.000000
vt 0.937500 0.937500
vt 0.062500 0.937500
vt 0.062500 0.062500
vt 0.937500 0.062500
vn -1.0000 0.0000 0.0000
vn 0.0000 0.0000 -1.0000
vn 1.0000 0.0000 0.0000
vn 0.0000 0.0000 1.0000
vn 0.0000 -1.0000 0.0000
vn 0.0000 1.0000 0.0000
usemtl vessel_side
s off
f 1/1/1 2/2/1 4/3/1 3/4/1
f 3/5/2 4/6/2 8/7/2 7/8/2
f 7/8/3 8/7/3 6/9/3 5/10/3
f 5/11/4 6/12/4 2/2/4 1/1/4
f 9/13/1 10/14/1 12/15/1 11/16/1
f 11/17/2 12/18/2 16/19/2 15/20/2
f 15/20/3 16/19/3 14/21/3 13/22/3
f 13/23/4 14/24/4 10/14/4 9/13/4
usemtl vessel_bottom
f 3/25/5 7/26/5 5/27/5 1/28/5
f 11/29/5 15/30/5 13/31/5 9/32/5
f 17/33/1 18/34/1 20/35/1 19/36/1
f 19/37/2 20/38/2 24/39/2 23/40/2
f 23/40/3 24/39/3 22/41/3 21/42/3
f 21/43/4 22/44/4 18/34/4 17/33/4
usemtl vessel_wide_band_top
f 8/45/6 4/46/6 2/47/6 6/48/6
usemtl vessel_top
f 16/49/6 12/50/6 10/51/6 14/52/6
